<?xml version="1.0" standalone="no"?>
<!DOCTYPE svg PUBLIC "-//W3C//DTD SVG 1.1//EN" "http://www.w3.org/Graphics/SVG/1.1/DTD/svg11.dtd" >
<svg>
<metadata>
Created by FontForge 20120731 at Wed Mar 16 11:46:41 2016
 By www-data
Copyright (c) 2012 by Aleksandr Sukiasov. All rights reserved.
</metadata>
<defs>
<font id="ASGrammatikaGeoNusxuri" horiz-adv-x="556" >
  <font-face 
    font-family="AS Grammatika Geo Nusxuri 2"
    font-weight="400"
    font-stretch="normal"
    units-per-em="1000"
    panose-1="2 0 0 0 0 0 0 0 0 0"
    ascent="714"
    descent="-286"
    x-height="517"
    cap-height="714"
    bbox="-166 -253 1115 952"
    underline-thickness="50"
    underline-position="-50"
    unicode-range="U+0020-FB02"
  />
<missing-glyph horiz-adv-x="500" 
d="M0 0v700h500v-700h-500zM250 395l170 255h-340zM280 350l170 -255v510zM80 50h340l-170 255zM50 605v-510l170 255z" />
    <glyph glyph-name=".notdef" horiz-adv-x="500" 
d="M0 0v700h500v-700h-500zM250 395l170 255h-340zM280 350l170 -255v510zM80 50h340l-170 255zM50 605v-510l170 255z" />
    <glyph glyph-name=".null" horiz-adv-x="0" 
 />
    <glyph glyph-name="nonmarkingreturn" horiz-adv-x="333" 
 />
    <glyph glyph-name="space" unicode=" " horiz-adv-x="278" 
 />
    <glyph glyph-name="exclam" unicode="!" horiz-adv-x="259" 
d="M177 714v-220l-25 -311h-45l-25 311v220h95zM74 0v111h111v-111h-111z" />
    <glyph glyph-name="quotedbl" unicode="&#x22;" horiz-adv-x="426" 
d="M109 456v258h68v-258h-68zM249 456v258h68v-258h-68z" />
    <glyph glyph-name="numbersign" unicode="#" 
d="M102 0l29 206h-97v68h107l21 150h-102v68h111l29 205h69l-29 -205h124l29 205h69l-29 -205h89v-68h-98l-21 -150h91v-68h-101l-29 -206h-69l29 206h-124l-29 -206h-69zM355 424h-124l-21 -150h124z" />
    <glyph glyph-name="dollar" unicode="$" 
d="M251 417v234q-51 -6 -83 -36.5t-32 -84.5q0 -49 28 -72t87 -41zM306 314v-251q129 10 129 128q0 52 -32.5 78.5t-96.5 44.5zM25 218h85q2 -65 40.5 -105t100.5 -50v265q-111 27 -158 68t-47 125q0 89 58.5 147t146.5 63v66h55v-67q156 -19 197 -198h-85q-20 99 -112 116
v-246l60 -16q23 -6 47 -18t51 -33.5t44 -56.5t17 -78q0 -94 -60.5 -151.5t-158.5 -65.5v-82h-55v82q-99 10 -158.5 71t-67.5 164z" />
    <glyph glyph-name="percent" unicode="%" horiz-adv-x="1000" 
d="M586 186q0 90 38 146.5t124 56.5q160 0 160 -200q0 -86 -39.5 -143.5t-120.5 -57.5q-85 0 -123.5 54.5t-38.5 143.5zM661 188q0 -145 84 -145q88 0 88 146q0 145 -85 145q-87 0 -87 -146zM92 506q0 90 38 146.5t124 56.5q160 0 160 -200q0 -86 -39.5 -143.5t-120.5 -57.5
q-85 0 -123.5 54.5t-38.5 143.5zM167 508q0 -145 84 -145q88 0 88 146q0 145 -85 145q-87 0 -87 -146zM188 -22l538 744h85l-537 -744h-86z" />
    <glyph glyph-name="ampersand" unicode="&#x26;" horiz-adv-x="630" 
d="M411 148l-164 197q-62 -35 -93 -69t-31 -92q0 -52 41 -86.5t95 -34.5q95 0 152 85zM534 0l-76 89q-31 -49 -86 -75t-116 -26q-68 0 -115.5 21.5t-69 55t-30 62.5t-8.5 56q0 77 43 125.5t124 90.5q-6 9 -23 31.5t-23 32.5t-16 28.5t-13.5 36.5t-3.5 39q0 61 43.5 104
t117.5 43q72 0 122.5 -38.5t50.5 -107.5q0 -109 -134 -185l129 -157q20 54 23 111h81q-5 -60 -14.5 -92.5t-33.5 -83.5l139 -161h-111zM275 439q27 17 44.5 31t34 39.5t16.5 53.5q0 32 -22.5 54t-59.5 22q-33 0 -57.5 -19.5t-24.5 -56.5q0 -9 2 -18t7 -19t8 -17t12 -19
t12.5 -16.5t14.5 -18t13 -16.5z" />
    <glyph glyph-name="quotesingle" unicode="'" horiz-adv-x="278" 
d="M105 456v258h68v-258h-68z" />
    <glyph glyph-name="parenleft" unicode="(" horiz-adv-x="259" 
d="M269 -198h-65q-78 121 -117.5 232.5t-39.5 235.5q0 118 40.5 239t116.5 222h65q-132 -208 -132 -461q0 -255 132 -468z" />
    <glyph glyph-name="parenright" unicode=")" horiz-adv-x="259" 
d="M55 -198h-65q132 208 132 461q0 255 -132 468h65q78 -121 117.5 -232.5t39.5 -235.5q0 -118 -40.5 -239t-116.5 -222z" />
    <glyph glyph-name="asterisk" unicode="*" horiz-adv-x="352" 
d="M201 714v-113l107 40l20 -48l-109 -38l66 -91l-41 -31l-69 96l-65 -96l-45 31l65 91l-106 38l18 48l106 -40v113h53z" />
    <glyph glyph-name="plus" unicode="+" horiz-adv-x="600" 
d="M334 506v-219h218v-68h-218v-219h-68v219h-218v68h218v219h68z" />
    <glyph glyph-name="comma" unicode="," horiz-adv-x="278" 
d="M83 0v111h111v-101q0 -126 -110 -157v50q31 10 45.5 39.5t12.5 57.5h-59z" />
    <glyph glyph-name="hyphen" unicode="-" horiz-adv-x="389" 
d="M50 238v80h289v-80h-289z" />
    <glyph glyph-name="period" unicode="." horiz-adv-x="278" 
d="M83 0v111h111v-111h-111z" />
    <glyph glyph-name="slash" unicode="/" horiz-adv-x="333" 
d="M-18 -17l296 748h73l-296 -748h-73z" />
    <glyph glyph-name="zero" unicode="0" 
d="M514 475v-255q0 -116 -61 -174t-175 -58q-118 0 -181.5 57.5t-63.5 174.5v255q0 116 64 175t181 59q113 0 174.5 -59.5t61.5 -174.5zM278 63q70 0 107.5 41t37.5 116v255q0 75 -38 117.5t-107 42.5q-74 0 -114 -41t-40 -119v-255q0 -78 40 -117.5t114 -39.5z" />
    <glyph glyph-name="one" unicode="1" horiz-adv-x="432" 
d="M196 709h71v-709h-85v590l-75 -79l-49 49z" />
    <glyph glyph-name="two" unicode="2" 
d="M351 250l-200 -175h336v-75h-463v75l272 238q108 93 108 193q0 57 -39.5 92.5t-97.5 35.5q-69 0 -104.5 -52.5t-33.5 -123.5h-85q-5 110 56.5 180.5t171.5 70.5q97 0 159.5 -54t62.5 -150q0 -126 -143 -255z" />
    <glyph glyph-name="three" unicode="3" 
d="M218 333v72q13 -1 37 -1q57 0 96 30.5t39 85.5q0 54 -35 84t-91 30q-66 0 -99.5 -43.5t-34.5 -110.5h-85q4 105 60 167t159 62q97 0 156.5 -48t59.5 -142q0 -45 -28 -83t-70 -58v-2q63 -14 95.5 -60t32.5 -112q0 -102 -69.5 -159t-174.5 -57q-109 0 -173.5 61.5
t-62.5 169.5h85q2 -71 41 -113.5t110 -42.5q65 0 109.5 37.5t44.5 99.5q0 64 -42.5 100t-108.5 36q-27 0 -51 -3z" />
    <glyph glyph-name="four" unicode="4" 
d="M419 709v-468h96v-75h-96v-166h-80v166h-311v82l323 461h68zM101 241h238v347h-2z" />
    <glyph glyph-name="five" unicode="5" 
d="M275 456q113 0 174 -60t61 -176t-60.5 -174t-174.5 -58q-229 0 -244 203h91q14 -128 153 -128q70 0 107.5 41t37.5 116q0 76 -38 119t-107 43q-98 0 -137 -53h-82v368h415v-75h-334v-201q48 35 138 35z" />
    <glyph glyph-name="six" unicode="6" 
d="M283 457q113 0 174 -60t61 -176t-60.5 -174t-174.5 -58q-118 0 -181.5 57.5t-63.5 174.5v257v2q0 230 238 230q97 0 154.5 -46t70.5 -135h-92q-21 107 -134 107q-71 0 -108 -40.5t-38 -117.5l-1 -102q30 81 155 81zM283 64q70 0 107.5 41t37.5 116q0 76 -38 119t-107 43
q-75 0 -115 -42t-40 -120t40 -117.5t115 -39.5z" />
    <glyph glyph-name="seven" unicode="7" 
d="M49 697h459v-73l-304 -624h-95l312 617h-372v80z" />
    <glyph glyph-name="eight" unicode="8" 
d="M130 200q0 -63 42 -100t109 -37q63 0 104 39t41 99q0 57 -42.5 96t-103.5 39q-64 0 -107 -38t-43 -98zM65 528q0 84 61 132.5t147 48.5q108 0 161.5 -53t53.5 -128q0 -47 -27 -87t-71 -60q126 -40 126 -177q0 -100 -66.5 -158t-168.5 -58q-107 0 -174 55.5t-67 160.5
q0 63 32.5 109.5t91.5 67.5q-44 18 -71.5 58.5t-27.5 88.5zM155 525q0 -56 35 -85t91 -29q52 0 84.5 30.5t32.5 83.5q0 52 -33 80.5t-86 28.5t-88.5 -29t-35.5 -80z" />
    <glyph glyph-name="nine" unicode="9" 
d="M265 241q-113 0 -174 60t-61 177q0 116 60.5 173.5t174.5 57.5q118 0 181.5 -57t63.5 -174v-259q0 -117 -61.5 -174t-176.5 -57q-96 0 -154 46.5t-71 134.5h92q22 -106 133 -106q72 0 109 40.5t38 117.5l1 102q-30 -82 -155 -82zM265 635q-70 0 -107.5 -41t-37.5 -116
q0 -76 38 -119t107 -43q74 0 114.5 42t40.5 120t-40 117.5t-115 39.5z" />
    <glyph glyph-name="colon" unicode=":" horiz-adv-x="278" 
d="M83 0v111h111v-111h-111zM194 517v-111h-111v111h111z" />
    <glyph glyph-name="semicolon" unicode=";" horiz-adv-x="278" 
d="M83 0v111h111v-101q0 -126 -110 -157v50q31 10 45.5 39.5t12.5 57.5h-59zM194 517v-111h-111v111h111z" />
    <glyph glyph-name="less" unicode="&#x3c;" horiz-adv-x="600" 
d="M554 514v-68l-425 -193l425 -193v-68l-508 230v62z" />
    <glyph glyph-name="equal" unicode="=" horiz-adv-x="600" 
d="M552 388v-68h-504v68h504zM48 118v68h504v-68h-504z" />
    <glyph glyph-name="greater" unicode="&#x3e;" horiz-adv-x="600" 
d="M46 -8v68l425 193l-425 193v68l508 -230v-62z" />
    <glyph glyph-name="question" unicode="?" 
d="M140 491h-85q-2 105 59.5 172.5t164.5 67.5q94 0 152.5 -53.5t58.5 -146.5q0 -38 -13.5 -71.5t-29.5 -53t-43 -45.5q-31 -29 -44 -43t-28 -43.5t-15 -61.5v-39h-85v47q0 24 6.5 46.5t12.5 35.5t23.5 34t22 25.5l25.5 25.5q47 47 60 71q21 36 18 80q-4 55 -36 86t-85 31
q-68 0 -104 -46t-35 -119zM218 0v111h111v-111h-111z" />
    <glyph glyph-name="at" unicode="@" horiz-adv-x="800" 
d="M420 505q-66 0 -113 -68.5t-47 -140.5q0 -42 24.5 -69.5t61.5 -27.5q61 0 108 72.5t47 140.5q0 36 -25 64.5t-56 28.5zM618 554l-84 -284q-11 -37 -11 -51q0 -31 24 -31q46 0 92 75.5t46 154.5q0 114 -80.5 186t-190.5 72q-127 0 -215.5 -94.5t-88.5 -226.5
q0 -133 91 -225t218 -92q71 0 138.5 33t109.5 88h63q-48 -82 -132 -129t-181 -47q-158 0 -266.5 109.5t-108.5 267.5q0 154 109 262.5t262 108.5q141 0 240.5 -87.5t99.5 -220.5q0 -62 -23 -118t-58.5 -92.5t-76 -58t-76.5 -21.5q-27 0 -45 16.5t-19 48.5h-3
q-57 -67 -124 -67q-63 0 -103 45.5t-40 112.5q0 110 67 197t168 87q81 0 112 -82l23 63h63z" />
    <glyph glyph-name="A" unicode="A" horiz-adv-x="648" 
d="M-7 0l279 714h105l279 -714h-105l-78 215h-302l-80 -215h-98zM322 628l-121 -333h242l-119 333h-2z" />
    <glyph glyph-name="B" unicode="B" horiz-adv-x="685" 
d="M173 327v-247h238q61 0 97.5 34.5t36.5 93.5q0 119 -155 119h-217zM78 0v714h259q146 0 189 -26q84 -50 84 -149q0 -56 -28 -98t-78 -62v-2q65 -13 100.5 -59t35.5 -113q0 -84 -58 -144.5t-159 -60.5h-345zM173 634v-227h190q80 0 116 28.5t36 85.5q0 36 -11.5 59.5
t-34.5 34.5t-47 15t-59 4h-190z" />
    <glyph glyph-name="C" unicode="C" horiz-adv-x="655" 
d="M522 269h95v-11q0 -134 -73 -204.5t-208 -70.5q-142 0 -217.5 68t-75.5 207v198q0 139 75.5 207t217.5 68q123 0 195 -59t84 -173h-96q-10 74 -57 113t-126 39q-95 0 -146.5 -50.5t-51.5 -144.5v-198q0 -94 51.5 -144.5t146.5 -50.5q90 0 138 50.5t48 144.5v11z" />
    <glyph glyph-name="D" unicode="D" horiz-adv-x="672" 
d="M333 714q142 0 217.5 -68t75.5 -207v-164q0 -139 -75.5 -207t-217.5 -68h-255v714h255zM531 275v164q0 94 -51.5 144.5t-146.5 50.5h-160v-554h160q95 0 146.5 50.5t51.5 144.5z" />
    <glyph glyph-name="E" unicode="E" horiz-adv-x="611" 
d="M78 0v714h493v-80h-398v-227h371v-80h-371v-247h401v-80h-496z" />
    <glyph glyph-name="F" unicode="F" horiz-adv-x="574" 
d="M78 0v714h469v-80h-374v-227h328v-80h-328v-327h-95z" />
    <glyph glyph-name="G" unicode="G" horiz-adv-x="680" 
d="M521 376h95v-376h-85v84q-27 -46 -81.5 -73.5t-114.5 -27.5q-142 0 -217.5 68t-75.5 207v198q0 139 75.5 207t217.5 68q125 0 197.5 -60.5t82.5 -176.5h-96q-9 77 -56 117t-128 40q-95 0 -146.5 -50.5t-51.5 -144.5v-198q0 -94 51.5 -144.5t146.5 -50.5q90 0 138 50.5
t48 144.5v38h-218v80h218z" />
    <glyph glyph-name="H" unicode="H" horiz-adv-x="722" 
d="M78 0v714h95v-307h376v307h95v-714h-95v327h-376v-327h-95z" />
    <glyph glyph-name="I" unicode="I" horiz-adv-x="259" 
d="M82 0v714h95v-714h-95z" />
    <glyph glyph-name="J" unicode="J" horiz-adv-x="519" 
d="M441 714v-536q0 -83 -50 -139t-161 -56q-100 0 -154 54t-54 154v44h95v-30q0 -69 25 -105.5t90 -36.5q62 0 88 33t26 96v522h95z" />
    <glyph glyph-name="K" unicode="K" horiz-adv-x="588" 
d="M483 0l-197 333h-112v-333h-95v714h95v-306h108l185 306h105l-205 -340l220 -374h-104z" />
    <glyph glyph-name="L" unicode="L" 
d="M78 0v714h95v-634h378v-80h-473z" />
    <glyph glyph-name="M" unicode="M" horiz-adv-x="871" 
d="M657 714h134v-714h-90v604l-221 -389h-91l-219 383v-598h-90v714h132l222 -401z" />
    <glyph glyph-name="N" unicode="N" horiz-adv-x="722" 
d="M77 0v714h101l376 -579h2v579h90v-714h-104l-373 573h-2v-573h-90z" />
    <glyph glyph-name="O" unicode="O" horiz-adv-x="650" 
d="M331 731q135 0 208 -70.5t73 -204.5v-198q0 -134 -73 -204.5t-208 -70.5q-142 0 -217.5 68t-75.5 207v198q0 139 75.5 207t217.5 68zM517 258v198q0 94 -48 144.5t-138 50.5q-95 0 -146.5 -50.5t-51.5 -144.5v-198q0 -94 51.5 -144.5t146.5 -50.5q90 0 138 50.5t48 144.5
z" />
    <glyph glyph-name="P" unicode="P" horiz-adv-x="648" 
d="M78 0v714h313q106 0 162.5 -55.5t56.5 -155.5t-56.5 -155.5t-162.5 -55.5h-218v-292h-95zM173 634v-262h186q156 0 156 131t-156 131h-186z" />
    <glyph glyph-name="Q" unicode="Q" horiz-adv-x="649" 
d="M612 259q0 -137 -77 -208l63 -52l-48 -60l-84 69q-58 -24 -135 -24q-142 0 -217.5 68t-75.5 207v198q0 139 75.5 207t217.5 68q135 0 208 -70.5t73 -204.5v-198zM392 68l-66 53l50 58l92 -73q49 46 49 153v198q0 94 -48 144.5t-138 50.5q-95 0 -146.5 -50.5t-51.5 -144.5
v-198q0 -94 51.5 -144.5t146.5 -50.5q43 0 61 4z" />
    <glyph glyph-name="R" unicode="R" horiz-adv-x="685" 
d="M624 0h-99l-135 292h-217v-292h-95v714h313q106 0 162.5 -55.5t56.5 -155.5q0 -75 -32.5 -126t-94.5 -71zM359 372q156 0 156 131t-156 131h-186v-262h186z" />
    <glyph glyph-name="S" unicode="S" horiz-adv-x="648" 
d="M581 505h-90q-16 146 -177 146q-68 0 -114 -29t-46 -93q0 -14 3.5 -26.5t12.5 -22t17.5 -17.5t24.5 -15t28 -11.5t33 -10t34.5 -8.5t38 -8t37.5 -8q50 -11 85 -24t70.5 -35.5t54 -59.5t18.5 -87q0 -72 -44 -122t-104.5 -70.5t-130.5 -20.5q-128 0 -211.5 64t-83.5 188h90
q0 -85 60 -128.5t148 -43.5q76 0 128.5 30t52.5 100q0 26 -11.5 46.5t-29 33.5t-46.5 24t-54.5 17t-62.5 14q-16 3 -24 5q-41 9 -68.5 16.5t-60.5 23t-53 34t-33.5 48t-13.5 67.5q0 102 76 155.5t183 53.5q115 0 187 -56.5t76 -169.5z" />
    <glyph glyph-name="T" unicode="T" horiz-adv-x="574" 
d="M240 0v634h-238v80h571v-80h-238v-634h-95z" />
    <glyph glyph-name="U" unicode="U" horiz-adv-x="722" 
d="M648 714v-456q0 -134 -73 -204.5t-208 -70.5q-142 0 -217.5 68t-75.5 207v456h95v-456q0 -94 51.5 -144.5t146.5 -50.5q90 0 138 50.5t48 144.5v456h95z" />
    <glyph glyph-name="V" unicode="V" horiz-adv-x="611" 
d="M613 714l-254 -714h-108l-252 714h103l204 -619h2l206 619h99z" />
    <glyph glyph-name="W" unicode="W" horiz-adv-x="926" 
d="M914 714l-191 -714h-99l-163 600h-2l-165 -600h-99l-183 714h97l140 -594h2l160 594h103l158 -594h2l145 594h95z" />
    <glyph glyph-name="X" unicode="X" horiz-adv-x="611" 
d="M-1 0l249 367l-235 347h114l178 -279l186 279h106l-236 -347l251 -367h-116l-192 295l-198 -295h-107z" />
    <glyph glyph-name="Y" unicode="Y" horiz-adv-x="648" 
d="M646 714l-273 -422v-292h-95v292l-276 422h113l214 -340l209 340h108z" />
    <glyph glyph-name="Z" unicode="Z" horiz-adv-x="611" 
d="M22 0v80l444 554h-410v80h522v-80l-443 -554h455v-80h-568z" />
    <glyph glyph-name="bracketleft" unicode="[" horiz-adv-x="259" 
d="M259 731v-68h-107v-793h107v-68h-187v929h187z" />
    <glyph glyph-name="backslash" unicode="\" horiz-adv-x="333" 
d="M55 731l296 -748h-73l-296 748h73z" />
    <glyph glyph-name="bracketright" unicode="]" horiz-adv-x="259" 
d="M0 -198v68h107v793h-107v68h187v-929h-187z" />
    <glyph glyph-name="asciicircum" unicode="^" horiz-adv-x="600" 
d="M50 264l218 433h64l218 -433h-70l-181 360l-178 -360h-71z" />
    <glyph glyph-name="underscore" unicode="_" horiz-adv-x="500" 
d="M0 -125v50h500v-50h-500z" />
    <glyph glyph-name="grave" unicode="`" horiz-adv-x="222" 
d="M108 588l-131 143h109l86 -143h-64z" />
    <glyph glyph-name="a" unicode="a" horiz-adv-x="535" 
d="M275 529q194 0 194 -142v-386h-80v67q-68 -80 -182 -80q-77 0 -123.5 36.5t-46.5 116.5q0 42 19.5 74.5t49.5 51.5t71 31.5t78 16.5t76 4h54v49q0 86 -115 86q-129 0 -129 -98v-5h-85v5q0 90 61.5 131.5t157.5 41.5zM384 180l1 64h-70q-87 0 -138 -28t-51 -77
q0 -39 28.5 -57.5t71.5 -18.5q76 0 116.5 37t41.5 80z" />
    <glyph glyph-name="b" unicode="b" horiz-adv-x="541" 
d="M67 714h85v-249q49 66 145 66q53 0 93 -15.5t61 -38t34 -53t16.5 -54.5t3.5 -49v-122q0 -25 -4 -49.5t-18 -55t-35.5 -53t-60.5 -38t-90 -15.5q-96 0 -145 63v-51h-85v113v601zM149 199q0 -136 131 -136q67 0 103 35t36 101v122q0 65 -36 100t-103 35q-131 0 -131 -135
v-122z" />
    <glyph glyph-name="c" unicode="c" horiz-adv-x="504" 
d="M387 188h86q-1 -23 -4.5 -44t-17 -51.5t-35 -52t-62.5 -37.5t-95 -16q-57 0 -100 15.5t-65.5 38t-36.5 53.5t-17.5 54.5t-3.5 49.5v122q0 26 3.5 49.5t17.5 54.5t36.5 53t65.5 37.5t100 15.5q60 0 103.5 -18t65 -48t31.5 -57t13 -57h-87q-14 105 -126 105q-67 0 -102 -35
t-35 -100v-122q0 -66 35 -101t102 -35q123 0 128 126z" />
    <glyph glyph-name="d" unicode="d" horiz-adv-x="540" 
d="M388 714h85v-601v-113h-85v51q-47 -63 -144 -63q-51 0 -90 15.5t-60.5 38t-35.5 53t-18 55t-4 49.5v122q0 25 3.5 49t16.5 54.5t34 53t61 38t93 15.5q97 0 144 -66v249zM261 63q131 0 131 136v122q0 135 -131 135q-67 0 -103 -35t-36 -100v-122q0 -66 36 -101t103 -35z
" />
    <glyph glyph-name="e" unicode="e" horiz-adv-x="508" 
d="M474 233h-352v-34q0 -66 35.5 -101t101.5 -35q111 0 126 101h87q-4 -30 -14 -56.5t-32 -55.5t-65 -46.5t-102 -17.5q-57 0 -100 15.5t-65.5 38t-36.5 53.5t-17.5 54.5t-3.5 49.5v122q0 26 3.5 49.5t17.5 54.5t36.5 53t65.5 37.5t100 15.5t99.5 -17.5t64 -41t34 -56
t15 -53.5t2.5 -42v-88zM259 456q-66 0 -101.5 -35t-35.5 -100v-13h266v13q0 66 -33 100.5t-96 34.5z" />
    <glyph glyph-name="f" unicode="f" horiz-adv-x="296" 
d="M99 0v442h-87v75h87v77q0 63 36.5 95.5t106.5 32.5q29 0 55 -8v-74q-21 7 -48 7q-33 0 -49 -13t-16 -45v-72h100v-75h-100v-442h-85z" />
    <glyph glyph-name="g" unicode="g" horiz-adv-x="591" 
d="M567 529v-90q-62 0 -102 -21q16 -38 16 -83q0 -92 -59 -143t-151 -51q-56 0 -104 20q-20 -12 -20 -34q0 -23 39 -33t94.5 -13.5t110.5 -12t94 -39.5t39 -85q0 -154 -256 -154q-115 0 -182.5 37t-67.5 98q0 36 23 64.5t47 39.5l23 11q-5 2 -12.5 6t-19.5 21t-12 39
q0 43 61 80q-66 52 -66 149q0 92 59 143t150 51q95 0 153 -53q53 56 143 53zM176 12l-7.5 -2.5t-15.5 -7.5t-20 -14t-16 -21.5t-7 -28.5q0 -38 46 -55.5t115 -17.5t116.5 18.5t47.5 58.5q0 27 -43.5 43.5t-97 21.5t-118.5 5zM271 208q57 0 89 35.5t32 89.5q0 53 -32.5 88.5
t-88.5 35.5t-88.5 -35.5t-32.5 -88.5q0 -54 32 -89.5t89 -35.5z" />
    <glyph glyph-name="h" unicode="h" 
d="M64 0v714h85v-273h2q20 44 66 66t97 22q96 0 137 -49.5t41 -139.5v-340h-85v350q0 48 -28.5 76t-76.5 28q-75 0 -114 -44.5t-39 -117.5v-292h-85z" />
    <glyph glyph-name="i" unicode="i" horiz-adv-x="222" 
d="M69 0v517h85v-517h-85zM154 714v-104h-85v104h85z" />
    <glyph glyph-name="j" unicode="j" horiz-adv-x="222" 
d="M154 517v-583q0 -67 -33 -99.5t-91 -32.5q-24 0 -44 4v73q12 -2 35 -2q28 0 38 15.5t10 55.5v569h85zM154 714v-104h-85v104h85z" />
    <glyph glyph-name="k" unicode="k" horiz-adv-x="505" 
d="M388 0l-158 244h-76v-244h-85v714h85v-395h70l149 198h101l-175 -229l187 -288h-98z" />
    <glyph glyph-name="l" unicode="l" horiz-adv-x="236" 
d="M69 120v594h85v-580q0 -40 10 -55.5t38 -15.5q23 0 35 2v-73q-20 -4 -44 -4q-58 0 -91 32.5t-33 99.5z" />
    <glyph glyph-name="m" unicode="m" horiz-adv-x="853" 
d="M64 0v517h80v-76h2q58 88 167 88q51 0 89 -21.5t53 -66.5q26 41 69 64.5t93 23.5q172 0 172 -150v-379h-85v339q0 55 -21 85t-79 30q-61 0 -98 -36t-37 -96v-322h-85v339q0 55 -21.5 85t-75.5 30q-35 0 -63.5 -15t-43.5 -37t-23 -43t-8 -37v-322h-85z" />
    <glyph glyph-name="n" unicode="n" 
d="M64 0v517h80v-82h2q53 94 168 94q96 0 137 -49.5t41 -139.5v-340h-85v350q0 48 -28.5 76t-76.5 28q-75 0 -114 -44.5t-39 -117.5v-292h-85z" />
    <glyph glyph-name="o" unicode="o" horiz-adv-x="513" 
d="M260 531q57 0 99 -17.5t63.5 -41t34 -56t15 -53.5t2.5 -42v-122q0 -21 -2.5 -42.5t-15 -54t-34 -56t-63.5 -41t-99 -17.5q-58 0 -101 15.5t-65.5 38t-36.5 53.5t-17.5 54.5t-3.5 49.5v122q0 26 3.5 49.5t17.5 54.5t36.5 53t65.5 37.5t101 15.5zM388 199v122
q0 135 -128 135q-67 0 -102.5 -35t-35.5 -100v-122q0 -66 35.5 -101t102.5 -35q128 0 128 136z" />
    <glyph glyph-name="p" unicode="p" horiz-adv-x="544" 
d="M152 -197h-85v714h85v-50q48 62 144 62q63 0 107.5 -22t65 -57.5t28.5 -67t8 -63.5v-122q0 -25 -3.5 -49t-16.5 -54.5t-34.5 -53t-61.5 -38t-93 -15.5q-97 0 -144 66v-250zM280 454q-131 0 -131 -135v-122q0 -135 131 -135q67 0 103 35t36 100v122q0 66 -36 100.5
t-103 34.5z" />
    <glyph glyph-name="q" unicode="q" horiz-adv-x="538" 
d="M472 -196h-85v250q-47 -66 -144 -66q-53 0 -93 15.5t-61 38t-34 53t-16.5 54.5t-3.5 49v122q0 25 4 49.5t18 54.5t35.5 52.5t60.5 38t90 15.5q97 0 144 -62v50h85v-112v-602zM390 320q0 135 -130 135q-68 0 -103.5 -34.5t-35.5 -100.5v-122q0 -65 36 -100t103 -35
q64 0 97 34.5t33 100.5v122z" />
    <glyph glyph-name="r" unicode="r" horiz-adv-x="333" 
d="M61 0v517h80v-109h2q31 64 76.5 93.5t113.5 27.5v-90q-99 0 -143 -53t-44 -156v-230h-85z" />
    <glyph glyph-name="s" unicode="s" horiz-adv-x="500" 
d="M31 163h85q2 -53 41 -76.5t98 -23.5q125 0 125 77q0 11 -2.5 20t-9.5 16.5t-12.5 13.5t-18 11t-20.5 8.5t-25 8t-25 6.5t-28 6t-28 6q-37 8 -62.5 17t-52.5 25.5t-40.5 42.5t-13.5 61q0 72 58 109.5t135 37.5q203 0 212 -162h-85q-4 46 -38 66.5t-82 20.5q-46 0 -78 -15
t-32 -51q0 -13 4.5 -23t16 -18.5t20.5 -14t29 -11t30 -8t35.5 -8t33.5 -7.5q38 -9 63 -18t52 -25t40.5 -42t13.5 -62q0 -44 -19 -77t-52 -51t-70 -26.5t-79 -8.5q-95 0 -155 42.5t-64 132.5z" />
    <glyph glyph-name="t" unicode="t" horiz-adv-x="315" 
d="M182 672v-155h103v-75h-103v-321q0 -29 12 -37.5t52 -8.5h39v-75h-65q-69 0 -96 22.5t-27 90.5v329h-88v75h88v155h85z" />
    <glyph glyph-name="u" unicode="u" 
d="M492 517v-517h-80v82h-2q-53 -94 -168 -94q-96 0 -137 49.5t-41 139.5v340h85v-350q0 -47 28.5 -75.5t76.5 -28.5q75 0 114 44.5t39 117.5v292h85z" />
    <glyph glyph-name="v" unicode="v" horiz-adv-x="500" 
d="M486 517l-189 -517h-91l-192 517h95l145 -431h2l141 431h89z" />
    <glyph glyph-name="w" unicode="w" horiz-adv-x="758" 
d="M741 517l-165 -517h-90l-105 411h-2l-104 -411h-92l-166 517h94l117 -423h2l104 423h93l108 -423h2l116 423h88z" />
    <glyph glyph-name="x" unicode="x" horiz-adv-x="518" 
d="M9 0l194 272l-180 245h109l124 -181l129 181h102l-178 -238l200 -279h-109l-144 214l-144 -214h-103z" />
    <glyph glyph-name="y" unicode="y" horiz-adv-x="500" 
d="M402 517h90l-274 -715h-85l80 201l-205 514h96l151 -423h2z" />
    <glyph glyph-name="z" unicode="z" horiz-adv-x="480" 
d="M22 0v65l312 377h-292v75h402v-58l-316 -384h330v-75h-436z" />
    <glyph glyph-name="braceleft" unicode="{" horiz-adv-x="333" 
d="M309 731v-60h-50q-48 0 -48 -86v-183q0 -61 -29.5 -94t-57.5 -40v-3q11 -1 24 -8t28 -21.5t25 -41.5t10 -63v-183q0 -86 48 -86h50v-60h-70q-41 0 -74.5 35.5t-33.5 95.5v182q0 52 -25 84.5t-58 32.5v68q33 0 58 33.5t25 84.5v182q0 60 33.5 95.5t74.5 35.5h70z" />
    <glyph glyph-name="bar" unicode="|" horiz-adv-x="222" 
d="M77 -214v1000h68v-1000h-68z" />
    <glyph glyph-name="braceright" unicode="}" horiz-adv-x="333" 
d="M24 -198v60h50q48 0 48 86v183q0 61 29.5 94t57.5 40v3q-11 1 -24 8t-28 21.5t-25 41.5t-10 63v181q0 88 -48 88h-50v60h70q41 0 74.5 -35.5t33.5 -95.5v-182q0 -53 25 -85.5t58 -32.5v-68q-33 0 -58 -33t-25 -84v-182q0 -60 -33.5 -95.5t-74.5 -35.5h-70z" />
    <glyph glyph-name="asciitilde" unicode="~" horiz-adv-x="600" 
d="M495 319l36 -50q-20 -27 -33 -42t-38 -29.5t-54 -14.5q-42 0 -102 33q-69 39 -115 39q-49 0 -84 -76l-36 50q45 86 125 86q39 0 111 -32q10 -4 34.5 -16.5t40 -18t27.5 -5.5q19 0 37 14t26 25t25 37z" />
    <glyph glyph-name="uni00A0" unicode="&#xa0;" horiz-adv-x="278" 
 />
    <glyph glyph-name="exclamdown" unicode="&#xa1;" horiz-adv-x="259" 
d="M82 -198v220l25 311h45l25 -311v-220h-95zM185 517v-111h-111v111h111z" />
    <glyph glyph-name="cent" unicode="&#xa2;" 
d="M508 189q-1 -22 -4.5 -42.5t-15.5 -50t-32 -51t-57.5 -38t-87.5 -19.5v-104h-39v105q-52 3 -90.5 19.5t-59 38.5t-32.5 52t-15.5 52.5t-3.5 47.5v122q0 32 6.5 61t25.5 64t62 58t107 26v94h39v-93q55 -3 94.5 -21.5t59.5 -48t29.5 -55.5t12.5 -55h-87q-12 96 -109 104
v-391q106 9 111 125h86zM157 199q0 -123 115 -135v391q-115 -11 -115 -134v-122z" />
    <glyph glyph-name="sterling" unicode="&#xa3;" 
d="M47 327v45h58q-47 78 -47 156q0 92 66.5 147.5t161.5 55.5q113 0 175.5 -66t60.5 -192h-85q-5 183 -146 183q-60 0 -101.5 -38t-41.5 -93q0 -23 5.5 -46t11 -35.5t18.5 -37t17 -34.5h159v-45h-137q20 -38 20 -75q0 -42 -18.5 -79t-39 -57.5t-58.5 -51.5l2 -2
q66 29 105 29q37 0 95 -15q61 -18 84 -18q42 0 89 37l43 -66q-54 -46 -146 -46q-37 0 -99 20q-69 21 -105 21q-48 0 -100 -35l-47 66q47 32 78.5 78.5t31.5 100.5q0 39 -25 93h-85z" />
    <glyph glyph-name="currency" unicode="&#xa4;" 
d="M25 555l49 49l56 -56q61 51 151 51q85 0 143 -50l57 56l50 -51l-55 -55q52 -57 52 -148q0 -87 -52 -150l55 -56l-47 -47l-56 58q-58 -55 -148 -55q-92 0 -152 54l-55 -58l-48 48l55 58q-52 63 -52 146q0 94 54 148zM281 524q-71 0 -119.5 -50.5t-48.5 -124.5
q0 -73 48.5 -123t118.5 -50q69 0 116 51t47 124q0 71 -47 122t-115 51z" />
    <glyph glyph-name="yen" unicode="&#xa5;" 
d="M232 0v174h-141v60h141v42l-18 33h-123v60h92l-183 345h109l174 -353l169 353h104l-178 -345h93v-60h-126l-18 -33v-42h144v-60h-144v-174h-95z" />
    <glyph glyph-name="brokenbar" unicode="&#xa6;" horiz-adv-x="222" 
d="M77 -89v250h68v-250h-68zM145 661v-250h-68v250h68z" />
    <glyph glyph-name="section" unicode="&#xa7;" 
d="M190 420q-30 -10 -51.5 -35.5t-21.5 -55.5q0 -22 8.5 -40.5t26.5 -34t31.5 -24.5t38.5 -23q99 -55 140 -83q72 30 72 93q0 20 -9 37.5t-30 34.5t-30.5 23.5t-36.5 22.5q-121 74 -138 85zM465 546h-85q-1 47 -28 78.5t-73 31.5q-42 0 -68.5 -22t-26.5 -64q0 -51 79 -99
q17 -10 87 -48q38 -20 62 -36.5t51 -40.5t40 -53t13 -64q0 -48 -29 -89t-75 -58q59 -44 59 -120q0 -72 -52.5 -116t-134.5 -44q-88 0 -141.5 50.5t-59.5 138.5h85q1 -51 32 -82.5t82 -31.5q40 0 70.5 22t30.5 61q0 11 -2.5 22t-9.5 21t-13 18t-18.5 17.5t-21 15.5t-25.5 16
t-26 15t-29 15.5t-29 15.5q-39 21 -64 38t-53.5 42.5t-42.5 57.5t-14 71q0 46 31 86t76 52q-46 48 -46 106q0 74 55.5 118t129.5 44q84 0 133 -47t51 -138z" />
    <glyph glyph-name="dieresis" unicode="&#xa8;" horiz-adv-x="222" 
d="M160 592v104h90v-104h-90zM-28 592v104h90v-104h-90z" />
    <glyph glyph-name="copyright" unicode="&#xa9;" horiz-adv-x="800" 
d="M511 298h73q0 -25 -6.5 -49t-23.5 -54t-56 -48.5t-95 -18.5q-48 0 -84.5 13t-56 32t-31 45t-14.5 45.5t-3 41.5v104q0 22 3 41.5t14.5 45.5t31 45t56 32t84.5 13q51 0 87.5 -15t55 -40t26.5 -48t11 -48h-73q-12 88 -107 88q-56 0 -86 -29.5t-30 -84.5v-104
q0 -55 30 -84.5t86 -29.5q105 0 108 107zM23 359q0 157 111 264.5t266 107.5t265 -107.5t110 -264.5q0 -159 -110 -267.5t-265 -108.5q-156 0 -266.5 108.5t-110.5 267.5zM91 359q0 -137 89 -229t220 -92q130 0 218.5 92t88.5 229q0 134 -88.5 225.5t-218.5 91.5
q-131 0 -220 -91.5t-89 -225.5z" />
    <glyph glyph-name="ordfeminine" unicode="&#xaa;" horiz-adv-x="355" 
d="M256 699q40 -22 40 -73v-239h-56v36q-41 -44 -107 -44q-15 0 -30.5 3.5t-34 12t-30.5 29.5t-12 51q0 41 30.5 67.5t68.5 35.5t83 9h30v27q0 49 -67 49q-75 0 -75 -60h-58q0 35 15 59.5t39 35t43.5 14.5t38.5 4q50 0 82 -17zM216 456q21 19 21 44l1 35h-39q-52 0 -82 -16
t-30 -44q0 -43 58 -43q45 0 71 24z" />
    <glyph glyph-name="guillemotleft" unicode="&#xab;" horiz-adv-x="463" 
d="M398 114l-152 120v88l152 120v-86l-100 -78l100 -78v-86zM202 114l-152 120v88l152 120v-86l-100 -78l100 -78v-86z" />
    <glyph glyph-name="logicalnot" unicode="&#xac;" horiz-adv-x="600" 
d="M552 388v-279h-68v211h-436v68h504z" />
    <glyph glyph-name="uni00AD" unicode="&#xad;" horiz-adv-x="389" 
d="M50 238v80h289v-80h-289z" />
    <glyph glyph-name="registered" unicode="&#xae;" horiz-adv-x="800" 
d="M504 328l86 -184h-71l-81 175h-121v-175h-67v437h192q66 0 101 -35q35 -34 35 -96q0 -93 -74 -122zM317 523v-147h106h2q87 0 87 74q0 73 -89 73h-106zM24 359q0 157 111 264.5t266 107.5t265 -107.5t110 -264.5q0 -159 -110 -267.5t-265 -108.5q-156 0 -266.5 108.5
t-110.5 267.5zM92 359q0 -137 89 -229t220 -92q130 0 218.5 92t88.5 229q0 134 -88.5 225.5t-218.5 91.5q-131 0 -220 -91.5t-89 -225.5z" />
    <glyph glyph-name="macron" unicode="&#xaf;" horiz-adv-x="222" 
d="M-59 620v55h341v-55h-341z" />
    <glyph glyph-name="degree" unicode="&#xb0;" horiz-adv-x="400" 
d="M56 565q0 60 42 102t102 42t102 -42t42 -102t-42 -102t-102 -42t-102 42t-42 102zM106 565q0 -37 26 -65.5t68 -28.5t68 28.5t26 65.5t-26 65.5t-68 28.5t-68 -28.5t-26 -65.5z" />
    <glyph glyph-name="plusminus" unicode="&#xb1;" horiz-adv-x="600" 
d="M48 271v68h218v166h68v-166h218v-68h-218v-167h-68v167h-218zM48 0v68h504v-68h-504z" />
    <glyph glyph-name="twosuperior" unicode="&#xb2;" horiz-adv-x="333" 
d="M228 432l-131 -96h220v-56h-304v56l179 134q71 51 71 117q0 33 -25.5 50t-64.5 17q-46 0 -69.5 -27.5t-21.5 -68.5h-55q-4 66 36.5 108.5t112.5 42.5q64 0 105 -32.5t41 -90.5q0 -85 -94 -154z" />
    <glyph glyph-name="threesuperior" unicode="&#xb3;" horiz-adv-x="333" 
d="M132 477v50h24q36 0 59.5 16t23.5 49q0 29 -21.5 45.5t-55.5 16.5q-39 0 -59.5 -24t-20.5 -62h-68q4 65 43 103t105 38q64 0 104.5 -30.5t40.5 -86.5q0 -27 -19.5 -50t-48.5 -35v-2q42 -8 64.5 -35.5t22.5 -66.5q0 -62 -47.5 -96t-114.5 -34q-70 0 -115 37t-45 104h68
q1 -41 25 -63.5t67 -22.5q39 0 66.5 19.5t27.5 52.5q0 39 -27 58t-66 19h-33z" />
    <glyph glyph-name="acute" unicode="&#xb4;" horiz-adv-x="222" 
d="M50 588l86 143h109l-131 -143h-64z" />
    <glyph glyph-name="mu" unicode="&#xb5;" 
d="M492 517v-517h-80v82h-2q-53 -94 -168 -94q-67 0 -91 38h-2v-224h-85v715h85v-350q0 -47 28.5 -75.5t76.5 -28.5q75 0 114 44.5t39 117.5v292h85z" />
    <glyph glyph-name="paragraph" unicode="&#xb6;" horiz-adv-x="600" 
d="M515 714v-869h-68v814h-122v-814h-68v477q-91 0 -150 53.5t-59 132.5q0 97 61 151.5t167 54.5h239z" />
    <glyph glyph-name="periodcentered" unicode="&#xb7;" horiz-adv-x="278" 
d="M75 311q0 26 19 45t45 19q25 0 44.5 -19.5t19.5 -44.5q0 -24 -19.5 -44t-43.5 -20q-26 0 -45.5 19t-19.5 45z" />
    <glyph glyph-name="cedilla" unicode="&#xb8;" horiz-adv-x="222" 
d="M5 -191l18 44q35 -13 61 -13q24 0 43 7.5t19 23.5q0 13 -13.5 22t-33.5 9q-17 0 -41 -8l-17 28l61 78h42l-42 -53l2 -2q10 7 33 7q34 0 59 -19t25 -54q0 -46 -37.5 -67.5t-86.5 -21.5q-40 0 -92 19z" />
    <glyph glyph-name="onesuperior" unicode="&#xb9;" horiz-adv-x="307" 
d="M160 615l-59 -62l-38 39l108 117h56v-429h-67v335z" />
    <glyph glyph-name="ordmasculine" unicode="&#xba;" horiz-adv-x="384" 
d="M192 709q79 0 123 -46.5t44 -119.5q0 -74 -43 -118.5t-123 -44.5q-78 0 -123 45t-45 118t44 119.5t123 46.5zM192 659q-43 0 -71 -29.5t-28 -86.5q0 -49 24.5 -81t75.5 -32q50 0 74 31.5t24 80.5q0 65 -29 91t-70 26z" />
    <glyph glyph-name="guillemotright" unicode="&#xbb;" horiz-adv-x="463" 
d="M65 442l152 -120v-88l-152 -120v86l100 78l-100 78v86zM261 442l152 -120v-88l-152 -120v86l100 78l-100 78v86z" />
    <glyph glyph-name="onequarter" unicode="&#xbc;" horiz-adv-x="834" 
d="M154 615l-59 -63l-39 39l109 117h56v-429h-67v336zM724 430v-278h60v-55h-60v-96h-62v96h-199v58l210 275h51zM660 345l-148 -193h150v193h-2zM151 -27l435 753h64l-435 -753h-64z" />
    <glyph glyph-name="onehalf" unicode="&#xbd;" horiz-adv-x="834" 
d="M135 -28l435 753h64l-435 -753h-64zM152 616l-59 -63l-39 39l109 117h56v-429h-67v336zM708 152l-131 -96h220v-56h-304v56l179 134q71 51 71 117q0 33 -25.5 50t-64.5 17q-46 0 -69.5 -27.5t-21.5 -68.5h-55q-4 66 36.5 108.5t112.5 42.5q64 0 105 -32.5t41 -90.5
q0 -85 -94 -154z" />
    <glyph glyph-name="threequarters" unicode="&#xbe;" horiz-adv-x="834" 
d="M740 429v-278h60v-55h-60v-96h-62v96h-199v58l210 275h51zM677 340l-148 -193h150v193h-2zM215 -28l435 753h64l-435 -753h-64zM177 477v50h24q36 0 59.5 16t23.5 49q0 29 -21.5 45.5t-55.5 16.5q-39 0 -59.5 -24t-20.5 -62h-68q4 65 43 103t105 38q64 0 104.5 -30.5
t40.5 -86.5q0 -27 -19.5 -50t-48.5 -35v-2q42 -8 64.5 -35.5t22.5 -66.5q0 -62 -47.5 -96t-114.5 -34q-70 0 -115 37t-45 104h68q1 -41 25 -63.5t67 -22.5q39 0 66.5 19.5t27.5 52.5q0 39 -27 58t-66 19h-33z" />
    <glyph glyph-name="questiondown" unicode="&#xbf;" 
d="M418 30h85q2 -105 -59.5 -172.5t-164.5 -67.5q-94 0 -152.5 53.5t-58.5 146.5q0 38 13.5 71.5t29.5 53t43 45.5q31 29 44 43t28 43.5t15 61.5v31h85v-39q0 -24 -6.5 -46.5t-12.5 -35.5t-23.5 -34t-22 -25.5l-25.5 -25.5q-47 -47 -60 -71q-21 -36 -18 -80q4 -55 36 -86
t85 -31q68 0 104 46t35 119zM337 517v-111h-111v111h111z" />
    <glyph glyph-name="Agrave" unicode="&#xc0;" horiz-adv-x="648" 
d="M-7 0l279 714h105l279 -714h-105l-78 215h-302l-80 -215h-98zM322 628l-121 -333h242l-119 333h-2zM321 765l-131 143h109l86 -143h-64z" />
    <glyph glyph-name="Aacute" unicode="&#xc1;" horiz-adv-x="648" 
d="M-7 0l279 714h105l279 -714h-105l-78 215h-302l-80 -215h-98zM322 628l-121 -333h242l-119 333h-2zM263 765l86 143h109l-131 -143h-64z" />
    <glyph glyph-name="Acircumflex" unicode="&#xc2;" horiz-adv-x="648" 
d="M-7 0l279 714h105l279 -714h-105l-78 215h-302l-80 -215h-98zM322 628l-121 -333h242l-119 333h-2zM174 765l103 143h93l104 -143h-84l-69 96l-70 -96h-77z" />
    <glyph glyph-name="Atilde" unicode="&#xc3;" horiz-adv-x="648" 
d="M-7 0l279 714h105l279 -714h-105l-78 215h-302l-80 -215h-98zM322 628l-121 -333h242l-119 333h-2zM446 888h52q-6 -44 -31 -80q-28 -31 -79 -31q-18 0 -66 20q-51 19 -67 19q-18 0 -33.5 -12t-14.5 -30h-52q14 51 38 80.5t67 29.5q28 0 74 -20t66 -20q33 0 46 44z" />
    <glyph glyph-name="Adieresis" unicode="&#xc4;" horiz-adv-x="648" 
d="M-7 0l279 714h105l279 -714h-105l-78 215h-302l-80 -215h-98zM322 628l-121 -333h242l-119 333h-2zM373 769v104h90v-104h-90zM185 769v104h90v-104h-90z" />
    <glyph glyph-name="Aring" unicode="&#xc5;" horiz-adv-x="648" 
d="M-7 0l279 714h105l279 -714h-105l-78 215h-302l-80 -215h-98zM322 628l-121 -333h242l-119 333h-2zM256 839q0 -29 20 -48.5t48 -19.5t48 19.5t20 48.5t-20 48.5t-48 19.5t-48 -19.5t-20 -48.5zM211 839q0 47 33.5 80t79.5 33t79.5 -33t33.5 -80t-33.5 -80t-79.5 -33
t-79.5 33t-33.5 80z" />
    <glyph glyph-name="AE" unicode="&#xc6;" horiz-adv-x="926" 
d="M-7 0l361 714h535v-80h-351v-227h330v-80h-330v-247h357v-80h-447v208h-246l-102 -208h-107zM448 634h-41l-168 -346h209v346z" />
    <glyph glyph-name="Ccedilla" unicode="&#xc7;" horiz-adv-x="661" 
d="M521 268h95v-11q0 -130 -69 -200.5t-197 -74.5l-29 -37l2 -2q11 7 33 7q34 0 59 -19t25 -54q0 -46 -37.5 -67.5t-86.5 -21.5q-40 0 -92 19l18 44q35 -13 61 -13q24 0 43 7.5t19 23.5q0 13 -13.5 22t-33.5 9q-17 0 -41 -8l-17 28l48 63q-266 13 -266 274v198
q0 139 75.5 207t217.5 68q123 0 195 -59.5t84 -172.5h-96q-10 74 -57 113t-126 39q-95 0 -146.5 -50.5t-51.5 -144.5v-198q0 -94 51.5 -144.5t146.5 -50.5q90 0 138 50.5t48 144.5v11z" />
    <glyph glyph-name="Egrave" unicode="&#xc8;" horiz-adv-x="611" 
d="M78 0v714h493v-80h-398v-227h371v-80h-371v-247h401v-80h-496zM303 765l-131 143h109l86 -143h-64z" />
    <glyph glyph-name="Eacute" unicode="&#xc9;" horiz-adv-x="611" 
d="M78 0v714h493v-80h-398v-227h371v-80h-371v-247h401v-80h-496zM245 765l86 143h109l-131 -143h-64z" />
    <glyph glyph-name="Ecircumflex" unicode="&#xca;" horiz-adv-x="611" 
d="M78 0v714h493v-80h-398v-227h371v-80h-371v-247h401v-80h-496zM156 765l103 143h93l104 -143h-84l-69 96l-70 -96h-77z" />
    <glyph glyph-name="Edieresis" unicode="&#xcb;" horiz-adv-x="611" 
d="M78 0v714h493v-80h-398v-227h371v-80h-371v-247h401v-80h-496zM355 769v104h90v-104h-90zM167 769v104h90v-104h-90z" />
    <glyph glyph-name="Igrave" unicode="&#xcc;" horiz-adv-x="259" 
d="M82 0v714h95v-714h-95zM127 765l-131 143h109l86 -143h-64z" />
    <glyph glyph-name="Iacute" unicode="&#xcd;" horiz-adv-x="259" 
d="M82 0v714h95v-714h-95zM69 765l86 143h109l-131 -143h-64z" />
    <glyph glyph-name="Icircumflex" unicode="&#xce;" horiz-adv-x="259" 
d="M82 0v714h95v-714h-95zM-20 765l103 143h93l104 -143h-84l-69 96l-70 -96h-77z" />
    <glyph glyph-name="Idieresis" unicode="&#xcf;" horiz-adv-x="259" 
d="M82 0v714h95v-714h-95zM179 769v104h90v-104h-90zM-9 769v104h90v-104h-90z" />
    <glyph glyph-name="Eth" unicode="&#xd0;" horiz-adv-x="680" 
d="M333 714q142 0 217.5 -68t75.5 -207v-164q0 -139 -75.5 -207t-217.5 -68h-255v339h-69v68h69v307h255zM531 275v164q0 94 -51.5 144.5t-146.5 50.5h-160v-227h215v-68h-215v-259h160q95 0 146.5 50.5t51.5 144.5z" />
    <glyph glyph-name="Ntilde" unicode="&#xd1;" horiz-adv-x="722" 
d="M77 0v714h101l376 -579h2v579h90v-714h-104l-373 573h-2v-573h-90zM483 888h52q-6 -44 -31 -80q-28 -31 -79 -31q-18 0 -66 20q-51 19 -67 19q-18 0 -33.5 -12t-14.5 -30h-52q14 51 38 80.5t67 29.5q28 0 74 -20t66 -20q33 0 46 44z" />
    <glyph glyph-name="Ograve" unicode="&#xd2;" horiz-adv-x="722" 
d="M360 765l-131 143h109l86 -143h-64zM367 731q135 0 208 -70.5t73 -204.5v-198q0 -134 -73 -204.5t-208 -70.5q-142 0 -217.5 68t-75.5 207v198q0 139 75.5 207t217.5 68zM553 258v198q0 94 -48 144.5t-138 50.5q-95 0 -146.5 -50.5t-51.5 -144.5v-198q0 -94 51.5 -144.5
t146.5 -50.5q90 0 138 50.5t48 144.5z" />
    <glyph glyph-name="Oacute" unicode="&#xd3;" horiz-adv-x="722" 
d="M299 765l86 143h109l-131 -143h-64zM367 731q135 0 208 -70.5t73 -204.5v-198q0 -134 -73 -204.5t-208 -70.5q-142 0 -217.5 68t-75.5 207v198q0 139 75.5 207t217.5 68zM553 258v198q0 94 -48 144.5t-138 50.5q-95 0 -146.5 -50.5t-51.5 -144.5v-198q0 -94 51.5 -144.5
t146.5 -50.5q90 0 138 50.5t48 144.5z" />
    <glyph glyph-name="Ocircumflex" unicode="&#xd4;" horiz-adv-x="722" 
d="M212 765l103 143h93l104 -143h-84l-69 96l-70 -96h-77zM367 731q135 0 208 -70.5t73 -204.5v-198q0 -134 -73 -204.5t-208 -70.5q-142 0 -217.5 68t-75.5 207v198q0 139 75.5 207t217.5 68zM553 258v198q0 94 -48 144.5t-138 50.5q-95 0 -146.5 -50.5t-51.5 -144.5v-198
q0 -94 51.5 -144.5t146.5 -50.5q90 0 138 50.5t48 144.5z" />
    <glyph glyph-name="Otilde" unicode="&#xd5;" horiz-adv-x="722" 
d="M487 888h52q-6 -44 -31 -80q-28 -31 -79 -31q-18 0 -66 20q-51 19 -67 19q-18 0 -33.5 -12t-14.5 -30h-52q14 51 38 80.5t67 29.5q28 0 74 -20t66 -20q33 0 46 44zM367 731q135 0 208 -70.5t73 -204.5v-198q0 -134 -73 -204.5t-208 -70.5q-142 0 -217.5 68t-75.5 207v198
q0 139 75.5 207t217.5 68zM553 258v198q0 94 -48 144.5t-138 50.5q-95 0 -146.5 -50.5t-51.5 -144.5v-198q0 -94 51.5 -144.5t146.5 -50.5q90 0 138 50.5t48 144.5z" />
    <glyph glyph-name="Odieresis" unicode="&#xd6;" horiz-adv-x="722" 
d="M367 731q135 0 208 -70.5t73 -204.5v-198q0 -134 -73 -204.5t-208 -70.5q-142 0 -217.5 68t-75.5 207v198q0 139 75.5 207t217.5 68zM553 258v198q0 94 -48 144.5t-138 50.5q-95 0 -146.5 -50.5t-51.5 -144.5v-198q0 -94 51.5 -144.5t146.5 -50.5q90 0 138 50.5t48 144.5
zM410 769v104h90v-104h-90zM222 769v104h90v-104h-90z" />
    <glyph glyph-name="multiply" unicode="&#xd7;" horiz-adv-x="600" 
d="M119 24l-48 48l182 182l-181 180l48 48l181 -180l180 180l48 -48l-180 -180l181 -182l-48 -48l-181 182z" />
    <glyph glyph-name="Oslash" unicode="&#xd8;" horiz-adv-x="760" 
d="M183 170l369 407q-64 74 -172 74q-83 0 -140.5 -44.5t-82 -109t-24.5 -140.5q0 -109 50 -187zM579 541l-369 -407q63 -71 170 -71q83 0 140.5 44.5t82 109t24.5 140.5q0 108 -48 184zM691 730l32 -30l-82 -90q81 -103 81 -253q0 -100 -37 -183t-116.5 -137t-188.5 -54
q-140 0 -229 86l-81 -89l-33 30l84 92q-83 103 -83 255q0 100 37 183t116.5 137t188.5 54q141 0 232 -88z" />
    <glyph glyph-name="Ugrave" unicode="&#xd9;" horiz-adv-x="722" 
d="M648 714v-456q0 -134 -73 -204.5t-208 -70.5q-142 0 -217.5 68t-75.5 207v456h95v-456q0 -94 51.5 -144.5t146.5 -50.5q90 0 138 50.5t48 144.5v456h95zM358 765l-131 143h109l86 -143h-64z" />
    <glyph glyph-name="Uacute" unicode="&#xda;" horiz-adv-x="722" 
d="M648 714v-456q0 -134 -73 -204.5t-208 -70.5q-142 0 -217.5 68t-75.5 207v456h95v-456q0 -94 51.5 -144.5t146.5 -50.5q90 0 138 50.5t48 144.5v456h95zM300 765l86 143h109l-131 -143h-64z" />
    <glyph glyph-name="Ucircumflex" unicode="&#xdb;" horiz-adv-x="722" 
d="M648 714v-456q0 -134 -73 -204.5t-208 -70.5q-142 0 -217.5 68t-75.5 207v456h95v-456q0 -94 51.5 -144.5t146.5 -50.5q90 0 138 50.5t48 144.5v456h95zM211 765l103 143h93l104 -143h-84l-69 96l-70 -96h-77z" />
    <glyph glyph-name="Udieresis" unicode="&#xdc;" horiz-adv-x="722" 
d="M648 714v-456q0 -134 -73 -204.5t-208 -70.5q-142 0 -217.5 68t-75.5 207v456h95v-456q0 -94 51.5 -144.5t146.5 -50.5q90 0 138 50.5t48 144.5v456h95zM410 769v104h90v-104h-90zM222 769v104h90v-104h-90z" />
    <glyph glyph-name="Yacute" unicode="&#xdd;" horiz-adv-x="648" 
d="M646 714l-273 -422v-292h-95v292l-276 422h113l214 -340l209 340h108zM263 765l86 143h109l-131 -143h-64z" />
    <glyph glyph-name="Thorn" unicode="&#xde;" horiz-adv-x="648" 
d="M173 0h-95v714h95v-114h218q106 0 162.5 -55.5t56.5 -156.5q0 -100 -56.5 -155t-162.5 -55h-218v-178zM173 520v-262h186q156 0 156 130q0 132 -156 132h-186z" />
    <glyph glyph-name="germandbls" unicode="&#xdf;" 
d="M64 0v531q0 89 54.5 144.5t143.5 55.5q81 0 144 -46.5t63 -128.5q0 -121 -104 -155v-2q65 -8 100.5 -59t35.5 -120q0 -103 -64 -167.5t-167 -64.5q-15 0 -43 4v74q11 -3 34 -3q68 0 109 40.5t41 105.5q0 91 -45 120.5t-139 29.5v68q67 -4 109.5 23.5t42.5 92.5
q0 47 -32 80t-79 33q-58 0 -88.5 -31t-30.5 -109v-516h-85z" />
    <glyph glyph-name="agrave" unicode="&#xe0;" horiz-adv-x="537" 
d="M266 588l-131 143h109l86 -143h-64zM275 529q194 0 194 -142v-386h-80v67q-68 -80 -182 -80q-77 0 -123.5 36.5t-46.5 116.5q0 42 19.5 74.5t49.5 51.5t71 31.5t78 16.5t76 4h54v49q0 86 -115 86q-129 0 -129 -98v-5h-85v5q0 90 61.5 131.5t157.5 41.5zM384 180l1 64h-70
q-87 0 -138 -28t-51 -77q0 -39 28.5 -57.5t71.5 -18.5q76 0 116.5 37t41.5 80z" />
    <glyph glyph-name="aacute" unicode="&#xe1;" horiz-adv-x="537" 
d="M208 588l86 143h109l-131 -143h-64zM275 529q194 0 194 -142v-386h-80v67q-68 -80 -182 -80q-77 0 -123.5 36.5t-46.5 116.5q0 42 19.5 74.5t49.5 51.5t71 31.5t78 16.5t76 4h54v49q0 86 -115 86q-129 0 -129 -98v-5h-85v5q0 90 61.5 131.5t157.5 41.5zM384 180l1 64h-70
q-87 0 -138 -28t-51 -77q0 -39 28.5 -57.5t71.5 -18.5q76 0 116.5 37t41.5 80z" />
    <glyph glyph-name="acircumflex" unicode="&#xe2;" horiz-adv-x="537" 
d="M119 588l103 143h93l104 -143h-84l-69 96l-70 -96h-77zM275 529q194 0 194 -142v-386h-80v67q-68 -80 -182 -80q-77 0 -123.5 36.5t-46.5 116.5q0 42 19.5 74.5t49.5 51.5t71 31.5t78 16.5t76 4h54v49q0 86 -115 86q-129 0 -129 -98v-5h-85v5q0 90 61.5 131.5t157.5 41.5
zM384 180l1 64h-70q-87 0 -138 -28t-51 -77q0 -39 28.5 -57.5t71.5 -18.5q76 0 116.5 37t41.5 80z" />
    <glyph glyph-name="atilde" unicode="&#xe3;" horiz-adv-x="537" 
d="M391 711h52q-6 -44 -31 -80q-28 -31 -79 -31q-18 0 -66 20q-51 19 -67 19q-18 0 -33.5 -12t-14.5 -30h-52q14 51 38 80.5t67 29.5q28 0 74 -20t66 -20q33 0 46 44zM275 529q194 0 194 -142v-386h-80v67q-68 -80 -182 -80q-77 0 -123.5 36.5t-46.5 116.5q0 42 19.5 74.5
t49.5 51.5t71 31.5t78 16.5t76 4h54v49q0 86 -115 86q-129 0 -129 -98v-5h-85v5q0 90 61.5 131.5t157.5 41.5zM384 180l1 64h-70q-87 0 -138 -28t-51 -77q0 -39 28.5 -57.5t71.5 -18.5q76 0 116.5 37t41.5 80z" />
    <glyph glyph-name="adieresis" unicode="&#xe4;" horiz-adv-x="537" 
d="M318 592v104h90v-104h-90zM130 592v104h90v-104h-90zM275 529q194 0 194 -142v-386h-80v67q-68 -80 -182 -80q-77 0 -123.5 36.5t-46.5 116.5q0 42 19.5 74.5t49.5 51.5t71 31.5t78 16.5t76 4h54v49q0 86 -115 86q-129 0 -129 -98v-5h-85v5q0 90 61.5 131.5t157.5 41.5z
M384 180l1 64h-70q-87 0 -138 -28t-51 -77q0 -39 28.5 -57.5t71.5 -18.5q76 0 116.5 37t41.5 80z" />
    <glyph glyph-name="aring" unicode="&#xe5;" horiz-adv-x="537" 
d="M201 662q0 -28 19.5 -48t48.5 -20t48.5 20t19.5 48t-19.5 48t-48.5 20t-48.5 -20t-19.5 -48zM156 662q0 46 33 79.5t80 33.5t80 -33.5t33 -79.5t-33 -79.5t-80 -33.5t-80 33.5t-33 79.5zM275 529q194 0 194 -142v-386h-80v67q-68 -80 -182 -80q-77 0 -123.5 36.5
t-46.5 116.5q0 42 19.5 74.5t49.5 51.5t71 31.5t78 16.5t76 4h54v49q0 86 -115 86q-129 0 -129 -98v-5h-85v5q0 90 61.5 131.5t157.5 41.5zM384 180l1 64h-70q-87 0 -138 -28t-51 -77q0 -39 28.5 -57.5t71.5 -18.5q76 0 116.5 37t41.5 80z" />
    <glyph glyph-name="ae" unicode="&#xe6;" horiz-adv-x="864" 
d="M824 244h-351v-45q0 -65 35 -100t102 -35q109 0 126 101h86q-3 -30 -13 -56.5t-32 -55.5t-65 -46.5t-102 -17.5q-41 0 -74.5 9.5t-52.5 22.5t-32.5 26.5t-18.5 22.5l-4 10q-1 -4 -4 -10t-18 -21.5t-36.5 -27.5t-64.5 -22t-98 -10q-74 0 -122.5 36.5t-48.5 115.5
q0 42 20 74.5t50 51.5t71 31.5t78 16.5t76 4h54v50q0 86 -115 86q-129 0 -129 -98v-5h-85v5q0 90 61.5 131.5t157.5 41.5q37 0 68 -7.5t48.5 -19t29.5 -22.5t17 -19l4 -7q2 3 5.5 8t17.5 18.5t31 23.5t47.5 18t66.5 8q57 0 99 -17.5t63.5 -41t34 -56t15 -53.5t2.5 -42v-77z
M473 321v-2h265v2q0 135 -128 135q-67 0 -102 -35t-35 -100zM126 140q0 -39 28.5 -57.5t71.5 -18.5q57 0 94.5 21.5t52.5 53.5q8 17 10 60l2 45h-70q-87 0 -138 -28t-51 -76z" />
    <glyph glyph-name="ccedilla" unicode="&#xe7;" horiz-adv-x="517" 
d="M474 188q-1 -22 -4.5 -43t-16 -50t-32.5 -51t-58 -38.5t-88 -18.5l-31 -40l2 -2q10 7 33 7q34 0 59 -19t25 -54q0 -46 -37.5 -67.5t-86.5 -21.5q-40 0 -92 19l18 44q35 -13 61 -13q24 0 43 7.5t19 23.5q0 13 -13.5 22t-33.5 9q-17 0 -41 -8l-17 28l51 66q-63 4 -105.5 27
t-61 58t-25 63.5t-6.5 60.5v122q0 26 3.5 49.5t17.5 54.5t36.5 53t65.5 37.5t100 15.5q60 0 103.5 -18t65 -48t31.5 -56.5t13 -56.5h-86q-15 104 -127 104q-66 0 -101.5 -35t-35.5 -100v-122q0 -65 35.5 -100t101.5 -35q124 0 129 126h86z" />
    <glyph glyph-name="egrave" unicode="&#xe8;" horiz-adv-x="509" 
d="M256 588l-131 143h109l86 -143h-64zM474 233h-352v-34q0 -66 35.5 -101t101.5 -35q111 0 126 101h87q-4 -30 -14 -56.5t-32 -55.5t-65 -46.5t-102 -17.5q-57 0 -100 15.5t-65.5 38t-36.5 53.5t-17.5 54.5t-3.5 49.5v122q0 26 3.5 49.5t17.5 54.5t36.5 53t65.5 37.5
t100 15.5t99.5 -17.5t64 -41t34 -56t15 -53.5t2.5 -42v-88zM259 456q-66 0 -101.5 -35t-35.5 -100v-13h266v13q0 66 -33 100.5t-96 34.5z" />
    <glyph glyph-name="eacute" unicode="&#xe9;" horiz-adv-x="513" 
d="M197 588l86 143h109l-131 -143h-64zM474 233h-352v-34q0 -66 35.5 -101t101.5 -35q111 0 126 101h87q-4 -30 -14 -56.5t-32 -55.5t-65 -46.5t-102 -17.5q-57 0 -100 15.5t-65.5 38t-36.5 53.5t-17.5 54.5t-3.5 49.5v122q0 26 3.5 49.5t17.5 54.5t36.5 53t65.5 37.5
t100 15.5t99.5 -17.5t64 -41t34 -56t15 -53.5t2.5 -42v-88zM259 456q-66 0 -101.5 -35t-35.5 -100v-13h266v13q0 66 -33 100.5t-96 34.5z" />
    <glyph glyph-name="ecircumflex" unicode="&#xea;" horiz-adv-x="513" 
d="M109 588l103 143h93l104 -143h-84l-69 96l-70 -96h-77zM474 233h-352v-34q0 -66 35.5 -101t101.5 -35q111 0 126 101h87q-4 -30 -14 -56.5t-32 -55.5t-65 -46.5t-102 -17.5q-57 0 -100 15.5t-65.5 38t-36.5 53.5t-17.5 54.5t-3.5 49.5v122q0 26 3.5 49.5t17.5 54.5
t36.5 53t65.5 37.5t100 15.5t99.5 -17.5t64 -41t34 -56t15 -53.5t2.5 -42v-88zM259 456q-66 0 -101.5 -35t-35.5 -100v-13h266v13q0 66 -33 100.5t-96 34.5z" />
    <glyph glyph-name="edieresis" unicode="&#xeb;" horiz-adv-x="511" 
d="M308 592v104h90v-104h-90zM120 592v104h90v-104h-90zM474 233h-352v-34q0 -66 35.5 -101t101.5 -35q111 0 126 101h87q-4 -30 -14 -56.5t-32 -55.5t-65 -46.5t-102 -17.5q-57 0 -100 15.5t-65.5 38t-36.5 53.5t-17.5 54.5t-3.5 49.5v122q0 26 3.5 49.5t17.5 54.5t36.5 53
t65.5 37.5t100 15.5t99.5 -17.5t64 -41t34 -56t15 -53.5t2.5 -42v-88zM259 456q-66 0 -101.5 -35t-35.5 -100v-13h266v13q0 66 -33 100.5t-96 34.5z" />
    <glyph glyph-name="igrave" unicode="&#xec;" horiz-adv-x="222" 
d="M154 0h-85v517h85v-517zM108 588l-131 143h109l86 -143h-64z" />
    <glyph glyph-name="iacute" unicode="&#xed;" horiz-adv-x="222" 
d="M154 0h-85v517h85v-517zM50 588l86 143h109l-131 -143h-64z" />
    <glyph glyph-name="icircumflex" unicode="&#xee;" horiz-adv-x="222" 
d="M154 0h-85v517h85v-517zM-39 588l103 143h93l104 -143h-84l-69 96l-70 -96h-77z" />
    <glyph glyph-name="idieresis" unicode="&#xef;" horiz-adv-x="222" 
d="M154 0h-85v517h85v-517zM160 592v104h90v-104h-90zM-28 592v104h90v-104h-90z" />
    <glyph glyph-name="eth" unicode="&#xf0;" horiz-adv-x="574" 
d="M272 506q90 0 139 -56h2q-21 47 -57 89t-65 62l-115 -54l-38 40l109 51q-27 23 -70 48l70 45q72 -52 77 -56l120 56l35 -37l-115 -53q174 -143 174 -383q0 -118 -66 -194t-185 -76t-185 76t-66 194q0 103 63.5 175.5t172.5 72.5zM282 431q-75 0 -115.5 -47t-40.5 -126
q0 -91 46 -143t115 -52t115 52t46 143q0 74 -41.5 123.5t-124.5 49.5z" />
    <glyph glyph-name="ntilde" unicode="&#xf1;" 
d="M64 0v517h80v-82h2q53 94 168 94q96 0 137 -49.5t41 -139.5v-340h-85v350q0 48 -28.5 76t-76.5 28q-75 0 -114 -44.5t-39 -117.5v-292h-85zM400 711h52q-6 -44 -31 -80q-28 -31 -79 -31q-18 0 -66 20q-51 19 -67 19q-18 0 -33.5 -12t-14.5 -30h-52q14 51 38 80.5t67 29.5
q28 0 74 -20t66 -20q33 0 46 44z" />
    <glyph glyph-name="ograve" unicode="&#xf2;" horiz-adv-x="513" 
d="M254 588l-131 143h109l86 -143h-64zM260 531q57 0 99 -17.5t63.5 -41t34 -56t15 -53.5t2.5 -42v-122q0 -21 -2.5 -42.5t-15 -54t-34 -56t-63.5 -41t-99 -17.5q-58 0 -101 15.5t-65.5 38t-36.5 53.5t-17.5 54.5t-3.5 49.5v122q0 26 3.5 49.5t17.5 54.5t36.5 53t65.5 37.5
t101 15.5zM388 199v122q0 135 -128 135q-67 0 -102.5 -35t-35.5 -100v-122q0 -66 35.5 -101t102.5 -35q128 0 128 136z" />
    <glyph glyph-name="oacute" unicode="&#xf3;" horiz-adv-x="513" 
d="M196 588l86 143h109l-131 -143h-64zM260 531q57 0 99 -17.5t63.5 -41t34 -56t15 -53.5t2.5 -42v-122q0 -21 -2.5 -42.5t-15 -54t-34 -56t-63.5 -41t-99 -17.5q-58 0 -101 15.5t-65.5 38t-36.5 53.5t-17.5 54.5t-3.5 49.5v122q0 26 3.5 49.5t17.5 54.5t36.5 53t65.5 37.5
t101 15.5zM388 199v122q0 135 -128 135q-67 0 -102.5 -35t-35.5 -100v-122q0 -66 35.5 -101t102.5 -35q128 0 128 136z" />
    <glyph glyph-name="ocircumflex" unicode="&#xf4;" horiz-adv-x="513" 
d="M117 588l103 143h93l104 -143h-84l-69 96l-70 -96h-77zM260 531q57 0 99 -17.5t63.5 -41t34 -56t15 -53.5t2.5 -42v-122q0 -21 -2.5 -42.5t-15 -54t-34 -56t-63.5 -41t-99 -17.5q-58 0 -101 15.5t-65.5 38t-36.5 53.5t-17.5 54.5t-3.5 49.5v122q0 26 3.5 49.5t17.5 54.5
t36.5 53t65.5 37.5t101 15.5zM388 199v122q0 135 -128 135q-67 0 -102.5 -35t-35.5 -100v-122q0 -66 35.5 -101t102.5 -35q128 0 128 136z" />
    <glyph glyph-name="otilde" unicode="&#xf5;" horiz-adv-x="513" 
d="M387 711h52q-6 -44 -31 -80q-28 -31 -79 -31q-18 0 -66 20q-51 19 -67 19q-18 0 -33.5 -12t-14.5 -30h-52q14 51 38 80.5t67 29.5q28 0 74 -20t66 -20q33 0 46 44zM260 531q57 0 99 -17.5t63.5 -41t34 -56t15 -53.5t2.5 -42v-122q0 -21 -2.5 -42.5t-15 -54t-34 -56
t-63.5 -41t-99 -17.5q-58 0 -101 15.5t-65.5 38t-36.5 53.5t-17.5 54.5t-3.5 49.5v122q0 26 3.5 49.5t17.5 54.5t36.5 53t65.5 37.5t101 15.5zM388 199v122q0 135 -128 135q-67 0 -102.5 -35t-35.5 -100v-122q0 -66 35.5 -101t102.5 -35q128 0 128 136z" />
    <glyph glyph-name="odieresis" unicode="&#xf6;" horiz-adv-x="513" 
d="M306 592v104h90v-104h-90zM118 592v104h90v-104h-90zM260 531q57 0 99 -17.5t63.5 -41t34 -56t15 -53.5t2.5 -42v-122q0 -21 -2.5 -42.5t-15 -54t-34 -56t-63.5 -41t-99 -17.5q-58 0 -101 15.5t-65.5 38t-36.5 53.5t-17.5 54.5t-3.5 49.5v122q0 26 3.5 49.5t17.5 54.5
t36.5 53t65.5 37.5t101 15.5zM388 199v122q0 135 -128 135q-67 0 -102.5 -35t-35.5 -100v-122q0 -66 35.5 -101t102.5 -35q128 0 128 136z" />
    <glyph glyph-name="divide" unicode="&#xf7;" horiz-adv-x="600" 
d="M48 219v68h504v-68h-504zM236 459q0 26 19 45t45 19t45 -19.5t19 -44.5q0 -24 -19 -44t-44 -20q-26 0 -45.5 19t-19.5 45zM236 47q0 26 19 45t45 19t45 -19.5t19 -44.5q0 -24 -19 -44t-44 -20q-26 0 -45.5 19t-19.5 45z" />
    <glyph glyph-name="oslash" unicode="&#xf8;" horiz-adv-x="574" 
d="M540 509l-63 -70q29 -50 29 -121v-122q0 -21 -2.5 -42.5t-15 -54t-34 -56t-63.5 -41t-99 -17.5q-112 0 -171 59l-59 -66l-28 24l65 71q-31 50 -31 123v122q0 26 3.5 49.5t17.5 54.5t36.5 53t65.5 37.5t101 15.5q108 0 162 -59l59 66zM154 196q0 -27 8 -53l236 263
q-32 47 -106 47q-67 0 -102.5 -35t-35.5 -100v-122zM420 318q0 28 -6 51l-235 -261q35 -48 113 -48q128 0 128 136v122z" />
    <glyph glyph-name="ugrave" unicode="&#xf9;" 
d="M492 517v-517h-80v82h-2q-53 -94 -168 -94q-96 0 -137 49.5t-41 139.5v340h85v-350q0 -47 28.5 -75.5t76.5 -28.5q75 0 114 44.5t39 117.5v292h85zM275 588l-131 143h109l86 -143h-64z" />
    <glyph glyph-name="uacute" unicode="&#xfa;" 
d="M492 517v-517h-80v82h-2q-53 -94 -168 -94q-96 0 -137 49.5t-41 139.5v340h85v-350q0 -47 28.5 -75.5t76.5 -28.5q75 0 114 44.5t39 117.5v292h85zM217 588l86 143h109l-131 -143h-64z" />
    <glyph glyph-name="ucircumflex" unicode="&#xfb;" 
d="M492 517v-517h-80v82h-2q-53 -94 -168 -94q-96 0 -137 49.5t-41 139.5v340h85v-350q0 -47 28.5 -75.5t76.5 -28.5q75 0 114 44.5t39 117.5v292h85zM128 588l103 143h93l104 -143h-84l-69 96l-70 -96h-77z" />
    <glyph glyph-name="udieresis" unicode="&#xfc;" 
d="M492 517v-517h-80v82h-2q-53 -94 -168 -94q-96 0 -137 49.5t-41 139.5v340h85v-350q0 -47 28.5 -75.5t76.5 -28.5q75 0 114 44.5t39 117.5v292h85zM327 592v104h90v-104h-90zM139 592v104h90v-104h-90z" />
    <glyph glyph-name="yacute" unicode="&#xfd;" horiz-adv-x="500" 
d="M189 588l86 143h109l-131 -143h-64zM402 517h90l-274 -715h-85l80 201l-205 514h96l151 -423h2z" />
    <glyph glyph-name="thorn" unicode="&#xfe;" horiz-adv-x="544" 
d="M152 -198h-85v912h85v-248q48 62 144 62q63 0 107.5 -22t65 -57.5t28.5 -67t8 -63.5v-122q0 -25 -3.5 -49t-16.5 -54.5t-34.5 -53t-61.5 -38t-93 -15.5q-97 0 -144 66v-250zM280 453q-131 0 -131 -135v-122q0 -135 131 -135q67 0 103 35t36 100v122q0 66 -36 100.5
t-103 34.5z" />
    <glyph glyph-name="ydieresis" unicode="&#xff;" horiz-adv-x="500" 
d="M299 592v104h90v-104h-90zM111 592v104h90v-104h-90zM402 517h90l-274 -715h-85l80 201l-205 514h96l151 -423h2z" />
    <glyph glyph-name="dotlessi" unicode="&#x131;" horiz-adv-x="222" 
d="M154 0h-85v517h85v-517z" />
    <glyph glyph-name="Lslash" unicode="&#x141;" 
d="M78 0v240l-79 -56v76l79 56v398h95v-330l228 160v-76l-228 -160v-228h378v-80h-473z" />
    <glyph glyph-name="lslash" unicode="&#x142;" horiz-adv-x="236" 
d="M202 63q23 0 35 2v-73q-20 -4 -44 -4q-58 0 -91 32.5t-33 99.5v137v64l-70 -55v71l70 56v321h85v-254l70 56v-71l-70 -56v-132v-123q0 -40 10 -55.5t38 -15.5z" />
    <glyph glyph-name="OE" unicode="&#x152;" horiz-adv-x="1042" 
d="M611 81h388v-80h-483v56q-62 -73 -185 -73q-142 0 -217.5 68t-75.5 207v198q0 139 75.5 207t217.5 68q124 0 185 -74v57h477v-80h-382v-227h350v-80h-350v-247zM331 64q90 0 138 50.5t48 144.5v198q0 94 -48 144.5t-138 50.5q-95 0 -146.5 -50.5t-51.5 -144.5v-198
q0 -94 51.5 -144.5t146.5 -50.5z" />
    <glyph glyph-name="oe" unicode="&#x153;" horiz-adv-x="870" 
d="M474 234v-47q3 -59 38.5 -91t98.5 -32q109 0 126 101h86q-4 -30 -14 -56.5t-31.5 -55.5t-64.5 -46.5t-102 -17.5q-43 0 -77 9t-52.5 22t-31 26.5t-16.5 22.5l-3 9q-1 -4 -4 -10t-16 -21t-30 -27t-49.5 -21.5t-71.5 -9.5q-58 0 -101 15.5t-65.5 37.5t-36.5 53t-17.5 54.5
t-3.5 49.5v122q0 26 3.5 49.5t17.5 54.5t36.5 53t65.5 37.5t101 15.5q36 0 67 -9t49.5 -22.5t31.5 -26.5t18 -22l5 -9q1 4 4.5 10t17.5 21t32.5 27t52 21.5t73.5 9.5q57 0 99 -17.5t63.5 -41t34 -56t15 -53.5t2.5 -42v-87h-351zM611 456q-63 0 -98.5 -31.5t-38.5 -90.5v-13
v-12h265v12q0 135 -128 135zM260 64q120 0 128 122v149q-8 121 -128 121q-67 0 -102.5 -35t-35.5 -100v-122q0 -65 35.5 -100t102.5 -35z" />
    <glyph glyph-name="Scaron" unicode="&#x160;" horiz-adv-x="648" 
d="M474 908l-103 -143h-93l-104 143h84l69 -96l70 96h77zM581 505h-90q-16 146 -177 146q-68 0 -114 -29t-46 -93q0 -14 3.5 -26.5t12.5 -22t17.5 -17.5t24.5 -15t28 -11.5t33 -10t34.5 -8.5t38 -8t37.5 -8q50 -11 85 -24t70.5 -35.5t54 -59.5t18.5 -87q0 -72 -44 -122
t-104.5 -70.5t-130.5 -20.5q-128 0 -211.5 64t-83.5 188h90q0 -85 60 -128.5t148 -43.5q76 0 128.5 30t52.5 100q0 26 -11.5 46.5t-29 33.5t-46.5 24t-54.5 17t-62.5 14q-16 3 -24 5q-41 9 -68.5 16.5t-60.5 23t-53 34t-33.5 48t-13.5 67.5q0 102 76 155.5t183 53.5
q115 0 187 -56.5t76 -169.5z" />
    <glyph glyph-name="scaron" unicode="&#x161;" horiz-adv-x="500" 
d="M400 731l-103 -143h-93l-104 143h84l69 -96l70 96h77zM31 163h85q2 -53 41 -76.5t98 -23.5q125 0 125 77q0 11 -2.5 20t-9.5 16.5t-12.5 13.5t-18 11t-20.5 8.5t-25 8t-25 6.5t-28 6t-28 6q-37 8 -62.5 17t-52.5 25.5t-40.5 42.5t-13.5 61q0 72 58 109.5t135 37.5
q203 0 212 -162h-85q-4 46 -38 66.5t-82 20.5q-46 0 -78 -15t-32 -51q0 -13 4.5 -23t16 -18.5t20.5 -14t29 -11t30 -8t35.5 -8t33.5 -7.5q38 -9 63 -18t52 -25t40.5 -42t13.5 -62q0 -44 -19 -77t-52 -51t-70 -26.5t-79 -8.5q-95 0 -155 42.5t-64 132.5z" />
    <glyph glyph-name="Ydieresis" unicode="&#x178;" horiz-adv-x="648" 
d="M646 714l-273 -422v-292h-95v292l-276 422h113l214 -340l209 340h108zM373 769v104h90v-104h-90zM185 769v104h90v-104h-90z" />
    <glyph glyph-name="Zcaron" unicode="&#x17d;" horiz-adv-x="611" 
d="M22 0v80l444 554h-410v80h522v-80l-443 -554h455v-80h-568zM456 908l-103 -143h-93l-104 143h84l69 -96l70 96h77z" />
    <glyph glyph-name="zcaron" unicode="&#x17e;" horiz-adv-x="480" 
d="M22 0v65l312 377h-292v75h402v-58l-316 -384h330v-75h-436zM390 731l-103 -143h-93l-104 143h84l69 -96l70 96h77z" />
    <glyph glyph-name="florin" unicode="&#x192;" 
d="M492 714l-14 -75h-59q-50 0 -62 -52l-31 -138h102l-14 -68h-100l-55 -311q-24 -135 -65 -185t-125 -50h-66l14 75q80 0 103 17t36 85l70 369h-92l13 68h91l26 136q12 59 52 94t102 35h74z" />
    <glyph glyph-name="circumflex" unicode="&#x2c6;" horiz-adv-x="222" 
d="M-39 588l103 143h93l104 -143h-84l-69 96l-70 -96h-77z" />
    <glyph glyph-name="caron" unicode="&#x2c7;" horiz-adv-x="222" 
d="M261 731l-103 -143h-93l-104 143h84l69 -96l70 96h77z" />
    <glyph glyph-name="uni02C9" unicode="&#x2c9;" horiz-adv-x="222" 
d="M-59 620v55h341v-55h-341z" />
    <glyph glyph-name="breve" unicode="&#x2d8;" horiz-adv-x="222" 
d="M-45 731h50q24 -83 112 -83q40 0 61 20t38 63h51q-11 -65 -52 -101.5t-106 -36.5q-134 0 -154 138z" />
    <glyph glyph-name="dotaccent" unicode="&#x2d9;" horiz-adv-x="222" 
d="M156 696v-104h-90v104h90z" />
    <glyph glyph-name="ring" unicode="&#x2da;" horiz-adv-x="222" 
d="M43 662q0 -28 19.5 -48t48.5 -20t48.5 20t19.5 48t-19.5 48t-48.5 20t-48.5 -20t-19.5 -48zM-2 662q0 46 33 79.5t80 33.5t80 -33.5t33 -79.5t-33 -79.5t-80 -33.5t-80 33.5t-33 79.5z" />
    <glyph glyph-name="ogonek" unicode="&#x2db;" horiz-adv-x="222" 
d="M190 3h40q-86 -71 -86 -121q0 -17 9.5 -29.5t28.5 -12.5q38 0 62 30l32 -18q-36 -62 -108 -62q-92 0 -92 82q0 13 6 28.5t34 45t74 57.5z" />
    <glyph glyph-name="tilde" unicode="&#x2dc;" horiz-adv-x="222" 
d="M233 711h52q-6 -44 -31 -80q-28 -31 -79 -31q-18 0 -66 20q-51 19 -67 19q-18 0 -33.5 -12t-14.5 -30h-52q14 51 38 80.5t67 29.5q28 0 74 -20t66 -20q33 0 46 44z" />
    <glyph glyph-name="hungarumlaut" unicode="&#x2dd;" horiz-adv-x="222" 
d="M-48 588l81 143h105l-120 -143h-66zM108 588l81 143h105l-120 -143h-66z" />
    <glyph glyph-name="uni03A9" unicode="&#x3a9;" horiz-adv-x="719" 
d="M196 66v2q-58 52 -96 131t-38 176q0 144 85.5 237.5t214.5 93.5q131 0 212.5 -97t81.5 -230q0 -99 -39.5 -181t-96.5 -130v-2h149v-66h-242v48q63 41 105.5 123t42.5 193q0 107 -57.5 191t-156.5 84q-98 0 -158 -79.5t-60 -198.5q0 -105 43.5 -190t103.5 -123v-48h-242
v66h148z" />
    <glyph glyph-name="uni03BC" unicode="&#x3bc;" 
d="M492 517v-517h-80v82h-2q-53 -94 -168 -94q-67 0 -91 38h-2v-224h-85v715h85v-350q0 -47 28.5 -75.5t76.5 -28.5q75 0 114 44.5t39 117.5v292h85z" />
    <glyph glyph-name="pi" unicode="&#x3c0;" horiz-adv-x="573" 
d="M547 449h-80v-302q0 -93 14 -147h-77q-17 29 -17 140v309h-177q-5 -107 -25.5 -245t-46.5 -204h-79q27 77 47.5 210.5t24.5 238.5q-74 0 -110 -12l-12 53q42 27 145 27h400z" />
    <glyph glyph-name="uni10D0" unicode="&#x10d0;" horiz-adv-x="507" 
d="M356 369q46 -17 81 -63t35 -114q0 -40 -10.5 -74t-33.5 -64.5t-66 -48t-103 -17.5q-58 0 -101 15.5t-65.5 38t-36.5 53.5t-17.5 54.5t-3.5 49.5q0 31 8 50h80q-2 -34 -2 -50q0 -66 35.5 -101t102.5 -35q60 0 93.5 31.5t33.5 92.5q0 57 -29.5 87.5t-93.5 57.5
q-106 47 -117 136h82q4 -26 29.5 -48t46 -31t52.5 -20z" />
    <glyph glyph-name="uni10D1" unicode="&#x10d1;" horiz-adv-x="513" 
d="M312 478q43 -7 74.5 -27t48 -42.5t26 -51.5t11.5 -47.5t2 -37.5v-73q0 -21 -2.5 -42.5t-15 -54t-34 -56t-63.5 -41t-99 -17.5q-58 0 -101 15.5t-65.5 38t-36.5 53.5t-17.5 54.5t-3.5 49.5v73q0 31 6.5 59.5t24 63t58.5 58t101 28.5v97q-67 9 -112.5 48.5t-60.5 87.5h93
q20 -43 62 -57t104 -14v-51v-14v-100zM388 199v73q0 135 -128 135q-67 0 -102.5 -35t-35.5 -100v-73q0 -66 35.5 -101t102.5 -35q128 0 128 136z" />
    <glyph glyph-name="uni10D2" unicode="&#x10d2;" horiz-adv-x="503" 
d="M361 192q4 -1 11.5 -3.5t26 -15t32.5 -30.5t25.5 -53t11.5 -79v-53q0 -21 -2.5 -42.5t-15 -54t-34 -56t-63.5 -41t-99 -17.5q-58 0 -101 15.5t-65.5 38t-36.5 53.5t-17.5 54.5t-3.5 49.5v53q0 26 3.5 49.5t17.5 54.5t36.5 53t65.5 37.5t101 15.5q19 0 46 12.5t43 36.5
q15 27 15 50q0 33 -26.5 60.5t-76.5 27.5q-56 0 -88 -36t-25 -90h-86q-8 85 47 142.5t151 57.5q91 0 140.5 -49t49.5 -113q0 -45 -21 -77t-41 -41zM382 -42v53q0 135 -128 135q-67 0 -102.5 -35t-35.5 -100v-53q0 -66 35.5 -101t102.5 -35q128 0 128 136z" />
    <glyph glyph-name="uni10D3" unicode="&#x10d3;" horiz-adv-x="830" 
d="M581 483q57 0 99 -17.5t63.5 -41t34 -56t15 -53.5t2.5 -42v-74q0 -21 -2.5 -42.5t-15 -54t-34 -56t-63.5 -41t-99 -17.5q-58 0 -101 15.5t-65.5 38t-36.5 53.5t-17.5 54.5t-3.5 49.5v74q0 63 -29 99t-84 36t-89 -37t-34 -98v-203q0 -67 68.5 -131t153.5 -64h117
q78 0 140 -35t62 -79h-91q0 20 -32 30.5t-79 10.5h-245q-58 0 -103 -26l-32 59q25 28 67 35q-47 33 -79.5 89t-32.5 99v215q0 102 59 156t150 54q39 0 69.5 -10.5t46 -25t26 -29t12.5 -24.5l3 -11q1 4 2.5 11t13 24t29 30t53.5 24t82 11zM709 199v74q0 135 -128 135
q-67 0 -102.5 -35t-35.5 -100v-74q0 -66 35.5 -101t102.5 -35q128 0 128 136z" />
    <glyph glyph-name="uni10D4" unicode="&#x10d4;" horiz-adv-x="505" 
d="M261 483q55 0 96 -17.5t62 -41t33.5 -56t15 -53.5t2.5 -42v-315q0 -21 -2.5 -42.5t-15 -54t-34 -56t-63.5 -41t-99 -17.5q-58 0 -101 15.5t-65.5 38t-36.5 53.5t-17.5 54.5t-3.5 49.5v75h86v-75q0 -66 35.5 -101t102.5 -35q128 0 128 136v315q0 65 -31.5 100t-91.5 35
q-65 0 -102.5 -38t-30.5 -110h-86q-2 31 1.5 59t17.5 59t37 53.5t65 37t98 14.5z" />
    <glyph glyph-name="uni10D5" unicode="&#x10d5;" horiz-adv-x="504" 
d="M359 143q4 -1 11.5 -4t26.5 -16t33.5 -31t26.5 -52.5t12 -77.5q0 -102 -48 -157.5t-166 -55.5q-125 0 -183 72.5t-32 192.5h83q-18 -100 20 -145t112 -45q128 0 128 138q0 73 -40 111t-122 26h-1v75q53 -10 99.5 22t46.5 95q0 49 -31.5 83t-81.5 34q-51 0 -86.5 -36
t-35.5 -90h-86q0 93 58.5 147t149.5 54q88 0 143.5 -55.5t55.5 -137.5q0 -34 -9.5 -61.5t-23 -42.5t-27.5 -25.5t-24 -14.5z" />
    <glyph glyph-name="uni10D6" unicode="&#x10d6;" horiz-adv-x="725" 
d="M507 466q48 0 83.5 -17t54 -40t29.5 -53.5t13.5 -51t2.5 -39.5v-66q0 -21 -2.5 -42.5t-15 -54t-34 -56t-63.5 -41t-99 -17.5q-58 0 -101 15.5t-65.5 38t-36.5 53.5t-17.5 54.5t-3.5 49.5v58q0 48 15 64q-41 -11 -83 -3t-76 28t-56 64t-22 105q0 56 18.5 98t49 64.5
t63.5 33t69 10.5q48 0 87 -16.5t62 -44t35 -62t10 -73t-17 -74.5q78 60 95 136h99q-13 -43 -36.5 -73t-40.5 -39zM230 385q54 0 83.5 35.5t29.5 95.5q0 59 -31 94.5t-82 35.5t-82.5 -35.5t-31.5 -95.5q0 -62 29.5 -96t84.5 -34zM604 199v66q0 135 -128 135q-67 0 -102.5 -35
t-35.5 -100v-66q0 -66 35.5 -101t102.5 -35q128 0 128 136z" />
    <glyph glyph-name="uni10D7" unicode="&#x10d7;" horiz-adv-x="830" 
d="M795 273v-214q0 -36 -6 -59h-87q7 19 7 59v214q0 61 -34 98t-89 37q-54 0 -83.5 -36.5t-29.5 -98.5v-74q0 -26 -3.5 -49.5t-17.5 -54.5t-36.5 -53.5t-65.5 -38t-101 -15.5q-57 0 -99 17.5t-63.5 41t-34 56t-15 54t-2.5 42.5v74q0 21 2.5 42t15 53.5t34 56t63.5 41
t99 17.5q46 0 82 -10.5t54 -25t29 -29t14 -24.5l2 -11q1 4 3 11t12.5 24t26 30t45.5 24t69 11q91 0 150 -54t59 -156zM387 199v74q0 65 -35.5 100t-102.5 35q-128 0 -128 -135v-74q0 -136 128 -136q67 0 102.5 35t35.5 101z" />
    <glyph glyph-name="uni10D8" unicode="&#x10d8;" horiz-adv-x="508" 
d="M259 483q57 0 99 -17.5t63.5 -41t34 -56t15 -53.5t2.5 -42v-214q0 -36 -6 -59h-87q7 19 7 59v214q0 135 -128 135q-67 0 -102.5 -35t-35.5 -100v-214q0 -40 7 -59h-87q-6 23 -6 59v214q0 26 3.5 49.5t17.5 54.5t36.5 53t65.5 37.5t101 15.5z" />
    <glyph glyph-name="uni10D9" unicode="&#x10d9;" horiz-adv-x="504" 
d="M359 169q4 -1 11.5 -4t26.5 -16t33.5 -31t26.5 -52.5t12 -77.5v-26q0 -103 -47.5 -158t-166.5 -55q-125 0 -183 72.5t-32 192.5h83q-18 -100 20 -145t112 -45q128 0 128 138v26q0 151 -162 137v75q52 -10 98.5 22t46.5 95v25q0 39 -6.5 71t-13.5 44l-6 12h82
q30 -60 30 -127v-25q0 -34 -9.5 -61.5t-23 -43t-27.5 -26t-24 -14.5z" />
    <glyph glyph-name="uni10DA" unicode="&#x10da;" horiz-adv-x="1150" 
d="M906 482q92 0 150.5 -54t58.5 -156v-214q0 -36 -6 -59h-87q7 19 7 59v214q0 61 -33.5 97.5t-89.5 37.5q-55 -1 -88.5 -37.5t-33.5 -97.5v-160h-86v160q0 61 -33.5 97.5t-89.5 37.5q-56 -1 -89.5 -37.5t-33.5 -97.5v-160h-86v160q0 61 -33.5 97.5t-88.5 37.5
q-56 -1 -89.5 -37.5t-33.5 -97.5v-203q0 -67 68.5 -131t153.5 -64h470q77 0 139.5 -35t62.5 -79h-91q0 20 -32 30.5t-79 10.5h-598q-58 0 -103 -26l-32 59q25 27 66 35q-46 33 -78.5 89.5t-32.5 98.5v215q0 102 58.5 156t150.5 54q38 0 69 -9.5t48 -23t28.5 -27.5t15.5 -24
l4 -9q1 4 4 10t15.5 22t29 28.5t48 22.5t69.5 10t69 -9.5t48.5 -23t29 -27.5t15.5 -24l4 -9q1 4 4 10t15.5 22t29 28.5t47.5 22.5t69 10z" />
    <glyph glyph-name="uni10DB" unicode="&#x10db;" horiz-adv-x="508" 
d="M264 721q49 0 87 -14t60.5 -35.5t37 -50.5t19.5 -55.5t5 -54.5v-312q0 -21 -2.5 -42.5t-15 -54t-34 -56t-63.5 -41t-99 -17.5q-58 0 -101 15.5t-65.5 38t-36.5 53.5t-17.5 54.5t-3.5 49.5v74q0 25 3.5 49t16 55t33.5 53t60 37.5t91 15.5q104 0 148 -63v91q0 132 -123 135
q-115 -2 -131 -106h-86q3 31 13.5 59.5t33 57.5t66.5 46.5t104 17.5zM387 199v74q0 135 -128 135q-67 0 -102.5 -35t-35.5 -100v-74q0 -66 35.5 -101t102.5 -35q128 0 128 136z" />
    <glyph glyph-name="uni10DC" unicode="&#x10dc;" horiz-adv-x="508" 
d="M269 483q52 0 91 -15.5t60 -37.5t33.5 -53t16 -55t3.5 -49v-74q0 -26 -3.5 -49.5t-17.5 -54.5t-36.5 -53.5t-65.5 -38t-101 -15.5q-57 0 -99 17.5t-63.5 41t-34 56t-15 54t-2.5 42.5v351q0 171 140 171q47 0 111 -7t74 -7q23 0 85 13l10 -63q-37 -17 -128 -17
q-20 0 -76 5t-63 5q-39 0 -53 -25.5t-14 -74.5v-130q44 63 148 63zM387 199v74q0 65 -35.5 100t-102.5 35q-128 0 -128 -135v-74q0 -136 128 -136q67 0 102.5 35t35.5 101z" />
    <glyph glyph-name="uni10DD" unicode="&#x10dd;" horiz-adv-x="801" 
d="M766 273v-214q0 -36 -6 -59h-87q7 19 7 59v214q0 61 -34 98t-89 37t-84 -36t-29 -99v-146h-87v146q0 63 -29 99t-84 36t-89 -37t-34 -98v-214q0 -40 7 -59h-87q-6 23 -6 59v214q0 102 59 156t150 54q39 0 69 -10.5t45.5 -25t26 -29t13.5 -24.5l2 -11q1 4 3 11t12.5 24
t26 30t46 24t69.5 11q91 0 150 -54t59 -156z" />
    <glyph glyph-name="uni10DE" unicode="&#x10de;" horiz-adv-x="503" 
d="M357 382q5 -1 12 -4t26.5 -16t34 -31t26.5 -53t12 -78q0 -102 -48 -157t-166 -55q-113 0 -172 60t-50 162h84q-4 -77 34.5 -112t103.5 -35q128 0 128 137q0 151 -163 137v75q49 -9 97 22t48 78q0 48 -27.5 71t-92.5 26q-32 1 -58.5 14t-42 31.5t-24 33.5t-11.5 26h96
q16 -26 60 -28q74 -5 130 -48.5t56 -117.5q0 -31 -9.5 -57t-23 -40.5t-27.5 -24t-24 -12.5z" />
    <glyph glyph-name="uni10DF" unicode="&#x10df;" horiz-adv-x="505" 
d="M384 469h86v-511q0 -21 -2.5 -42.5t-15 -54t-34 -56t-63.5 -41t-99 -17.5q-58 0 -101 15.5t-65.5 38t-36.5 53.5t-17.5 54.5t-3.5 49.5v75h86v-75q0 -66 35.5 -101t102.5 -35q128 0 128 136v442l-113 -17q23 -9 41 -35t18 -60q0 -63 -40.5 -102t-107.5 -39
q-63 0 -103.5 37.5t-46.5 89.5h84q5 -22 22.5 -39t43.5 -17q31 0 49 21.5t18 48.5q0 33 -20.5 54.5t-53.5 28.5h-1l-1 4l-9 56z" />
    <glyph glyph-name="uni10E0" unicode="&#x10e0;" horiz-adv-x="801" 
d="M766 273v-214q0 -36 -6 -59h-87q7 19 7 59v214q0 61 -34 98t-89 37t-84 -36t-29 -99v-146h-87v146q0 62 -29.5 98.5t-83.5 36.5q-55 0 -89 -37t-34 -98v-214q0 -40 7 -59h-87q-6 23 -6 59v338q0 109 86.5 192.5t203.5 83.5h135q47 0 79 10.5t32 30.5h91
q0 -43 -62.5 -78.5t-140.5 -35.5h-117q-83 0 -145.5 -51t-73.5 -120q44 54 121 54q39 0 69 -10.5t45.5 -25t26 -29t13.5 -24.5l2 -11q1 4 3 11t12.5 24t26 30t46 24t69.5 11q91 0 150 -54t59 -156z" />
    <glyph glyph-name="uni10E1" unicode="&#x10e1;" horiz-adv-x="508" 
d="M446 408q27 -64 27 -154v-55q0 -26 -3.5 -49.5t-17.5 -54.5t-36.5 -53.5t-65.5 -38t-101 -15.5q-57 0 -99 17.5t-63.5 41t-34 56t-15 54t-2.5 42.5v515h86v-515q0 -136 128 -136q67 0 102.5 35t35.5 101l1 54q0 50 -6 88.5t-12 52.5l-5 14h81z" />
    <glyph glyph-name="uni10E2" unicode="&#x10e2;" horiz-adv-x="545" 
d="M316 406q95 -10 146 -68.5t51 -163.5v-195q0 -116 -61 -174t-175 -58q-118 0 -181.5 57.5t-63.5 174.5v195q0 103 51.5 161.5t146.5 69.5v64h86v-63zM422 -21v196q0 63 -27.5 105t-78.5 54v-251h-86v250q-52 -13 -79.5 -53.5t-27.5 -104.5v-196q0 -78 40 -117.5
t114 -39.5q70 0 107.5 41t37.5 116z" />
    <glyph glyph-name="uni10E3" unicode="&#x10e3;" horiz-adv-x="505" 
d="M300 483q84 0 127 -62.5t43 -161.5v-301q0 -21 -2.5 -42.5t-15 -54t-34 -56t-63.5 -41t-99 -17.5q-58 0 -101 15.5t-65.5 38t-36.5 53.5t-17.5 54.5t-3.5 49.5v75h86v-75q0 -66 35.5 -101t102.5 -35q128 0 128 136v301q0 76 -21 112.5t-71 36.5q-90 0 -90 -127v-65h-86
v63q0 16 -2 30.5t-8.5 33t-17.5 32t-31 23t-47 9.5v76h15q32 0 57 -9.5t38.5 -23.5t23 -27.5t12.5 -22.5l2 -10q1 4 3.5 10t13 22t25 28.5t41 22.5t59.5 10z" />
    <glyph glyph-name="uni10E4" unicode="&#x10e4;" horiz-adv-x="848" 
d="M702 143q5 -1 12 -4t26.5 -16t34 -31t26.5 -52.5t12 -77.5q0 -102 -48 -157.5t-166 -55.5h-160q-102 0 -160.5 50t-62.5 136h87q12 -111 136 -111h160q128 0 128 138q0 151 -163 137v75q50 -10 97.5 21t47.5 89q0 60 -33.5 92t-89.5 32q-55 0 -84 -36t-29 -99v-74
q0 -26 -3.5 -49.5t-17.5 -54.5t-36.5 -53.5t-65.5 -38t-101 -15.5q-57 0 -99 17.5t-63.5 41t-34 56t-15 54t-2.5 42.5v74q0 21 2.5 42t15 53.5t34 56t63.5 41t99 17.5q46 0 82 -10.5t54 -25t29 -29t14 -24.5l2 -11q1 4 3 11t12.5 24t26 30t45.5 24t69 11q88 0 149 -50.5
t61 -142.5q0 -34 -9.5 -62t-23.5 -43t-28 -25.5t-23 -13.5zM387 199v74q0 65 -35.5 100t-102.5 35q-128 0 -128 -135v-74q0 -136 128 -136q67 0 102.5 35t35.5 101z" />
    <glyph glyph-name="uni10E5" unicode="&#x10e5;" horiz-adv-x="505" 
d="M384 714h86v-756q0 -21 -2.5 -42.5t-15 -54t-34 -56t-63.5 -41t-99 -17.5q-58 0 -101 15.5t-65.5 38t-36.5 53.5t-17.5 54.5t-3.5 49.5v75h86v-75q0 -66 35.5 -101t102.5 -35q128 0 128 136v315q0 65 -32 99.5t-91 34.5q-89 0 -116.5 -61.5t11.5 -141.5h-86
q-15 34 -17 78.5t10.5 90.5t58 77.5t118.5 31.5q49 0 85 -15.5t47 -30.5l12 -16v294z" />
    <glyph glyph-name="uni10E6" unicode="&#x10e6;" horiz-adv-x="801" 
d="M766 273v-214q0 -36 -6 -59h-87q7 19 7 59v214q0 61 -34 98t-89 37q-54 0 -83.5 -36.5t-29.5 -98.5v-146h-86v146q0 63 -29.5 99t-84.5 36t-89 -37t-34 -98v-203q0 -67 68.5 -131t153.5 -64h117q78 0 140 -35t62 -79h-91q0 20 -32 30.5t-79 10.5h-245q-58 0 -103 -26
l-32 59q25 28 67 35q-47 33 -79.5 89t-32.5 99v215q0 102 59 156t150 54q39 0 69.5 -10.5t46 -25t26 -29t12.5 -24.5l3 -11q1 4 3 11t12.5 24t26 30t46 24t69.5 11q91 0 149.5 -54t58.5 -156z" />
    <glyph glyph-name="uni10E7" unicode="&#x10e7;" horiz-adv-x="508" 
d="M387 469h86v-511q0 -21 -2.5 -42.5t-15 -54t-34 -56t-63.5 -41t-99 -17.5q-64 0 -110 18t-68.5 49t-32.5 59.5t-12 61.5h86q6 -55 41 -84t96 -29q128 0 128 136v93q-44 -63 -148 -63q-52 0 -91 15.5t-60 38t-33.5 53t-16 54.5t-3.5 49v271h86v-271q0 -65 35.5 -100
t102.5 -35q128 0 128 135v271z" />
    <glyph glyph-name="uni10E8" unicode="&#x10e8;" horiz-adv-x="513" 
d="M304 724q84 0 127 -62.5t43 -161.5v-92v-209q0 -21 -2.5 -42.5t-15 -54t-34 -56t-63.5 -41t-99 -17.5q-58 0 -101 15.5t-65.5 38t-36.5 53.5t-17.5 54.5t-3.5 49.5v74q0 25 3.5 49t16 54.5t33.5 53t60 38t91 15.5q104 0 148 -63v80q0 76 -21 112.5t-71 36.5
q-89 0 -89 -106h-88q0 42 -25.5 73.5t-79.5 31.5v76h15q32 0 57 -9.5t38.5 -23t23 -27.5t12.5 -24l2 -9q1 4 3.5 10t13 22t25 28.5t41 22.5t59.5 10zM388 199v74q0 135 -128 135q-67 0 -102.5 -35t-35.5 -100v-74q0 -66 35.5 -101t102.5 -35q128 0 128 136z" />
    <glyph glyph-name="uni10E9" unicode="&#x10e9;" horiz-adv-x="508" 
d="M382 443q91 -49 91 -184v-259h-86v259q0 65 -35.5 100t-102.5 35q-128 0 -128 -135v-259h-86v522q0 200 203 200q60 0 102.5 -14.5t64 -39t30.5 -49.5t9 -53q0 -77 -62 -123zM121 406q44 63 148 63q26 0 51 -5q39 33 39 86q0 42 -30.5 69t-90.5 27t-88.5 -34t-28.5 -90
v-116z" />
    <glyph glyph-name="uni10EA" unicode="&#x10ea;" horiz-adv-x="551" 
d="M406 167q4 -1 11.5 -4t26.5 -16.5t33.5 -32t26.5 -53t12 -76.5q0 -120 -61 -179t-175 -59q-118 0 -181.5 57.5t-63.5 174.5v0v0v0v0v0v0v0v0v0v0v0v0v0v0v0v0v0v0v0v0v0v0v0v0v0v0v1v0v0v0v0v0v0v0v0v0v0v0v0v1v0v0v0v0v0v0v0v1v0v0v0v0v0v1v0v0v0v0v1v0v0v0v0v1v0v0v0v1
v0v0v0v1v0v0v1v0v0v0v1v0v0v1v0v0v1v0v0v1v0v0v1v0v0v1v0v0v1v0v0v1v0v1v0v1v0v0v1v0v1v0v1v0v1v0v1v0v1v0v1v0v1v0v1v0v1v0v1v0v1v0v1v0v1v0v1v0v1v0v1v0v1v0v1v0v1v0v1v0v1v0v1v1v0v1v0v1v0v1v1v0v1v1v0v1v0v1v1v0v1v1v0v1v1v0v1v1v1v0v1v1v1v0v1v1v1v0v1v1v1v1v0v1v1v1v1
v1v1v1v0v1v1v1v1v1v1v1v1v1v1v1v1v1v1v1v1v1v1v1v1v1v1v1v1v1v1v1v1v1v1v1v1v1v1v1v1v1v1v1v1v1v1v1v1v1v1v1v1v1v1v1v1v1v1v1v1v1v1v1v1v1v1v1v1v1v1v1v1v1v1v1v1v1v1v1v1v1v1v1v1v1v1v1v1v1v1v1v1v1v1v1v1v1v1v1v1v1v1v1v1v1v1v1v1v1v1v1v1v1v1v1v1v1v1v1v1v1v1v1v1v1v1v1
v1v1v1v1v1v1v1v1v1v1v1v1v1v1v1v1v1v1v1v1v1v1v1v1v1v1v1v1v1v1v1v1v1v1v1v1v1v1v1v1v1v1v1v1v1v1v1v1v1v1v1v1v1v1v1v1v1v1v1v1v1v1v1v1v1v1v1v1v1v1v1v1v1v1v1v1v1v1v1v1v1v1v1v1v1v1v1v1v1v1v1v1v1v1v1v1v1v1v1v1v1v1v1v1v1v1v1v1v1v1v1v1v1v1v1v1v1v1v1v1v1v1v1v1v1v1v1
v1v1v1v1v1v1v1v1v1v1v1v1v1v1v1v1v1v1v1v1v1v1v1v1v1v1v1v1v1v1v1v1v1v1v1v1v1v1v1v1v1v1v1v1v1v1v1v1v1v1v1v1v1v1v1v1v1v1v1v1v1v1v1v1v1v1v1v1v1v1v1v1v1v1v1v1v1v1v1v1v1v1v1v1v1v1v1v1v1v1v1v1v1v1v1v1v1v1v1v1v1v1v1v1v1v1v1v1v1v1v1v1v1v1v1v1v1v1v1v1v1v1v1v1v1v1v1
v1v1v1v1v1v1v1v1v1v1v1v1v1v1v1v1v1v1v1v1v1v1v1v1v1v1v1v10h86q0 -491 1 -490q0 -77 42 -117t116 -40q71 0 110.5 42.5t39.5 120.5q0 72 -40 110t-122 27h-1v75q53 -10 99.5 22t46.5 95v15q0 39 -12.5 74t-25.5 51l-13 15h86q6 -7 14.5 -20t22.5 -49.5t14 -70.5v-15
q0 -34 -9.5 -61.5t-23.5 -42.5t-27.5 -25.5t-22.5 -14.5z" />
    <glyph glyph-name="uni10EB" unicode="&#x10eb;" horiz-adv-x="508" 
d="M387 714h86v-515q0 -21 -2.5 -42.5t-15 -54t-34 -56t-63.5 -41t-99 -17.5q-58 0 -101 15.5t-65.5 38t-36.5 53.5t-17.5 54.5t-3.5 49.5v74q0 25 3.5 49t16 55t33.5 53t60 37.5t91 15.5q104 0 148 -63v294zM387 199v74q0 135 -128 135q-67 0 -102.5 -35t-35.5 -100v-74
q0 -66 35.5 -101t102.5 -35q128 0 128 136z" />
    <glyph glyph-name="uni10EC" unicode="&#x10ec;" horiz-adv-x="513" 
d="M121 501v-81q44 63 148 63q56 0 97.5 -15.5t63 -41.5t31.5 -53.5t10 -56.5q0 -175 -102 -245t-334 -70v407v93q0 99 43 161t127 62q33 0 60 -9.5t41.5 -23t24.5 -27t13 -22.5l3 -10q1 4 3 10t11.5 22t23 28t39 22t56.5 10h15v-76q-54 0 -79.5 -31.5t-25.5 -73.5h-87
q0 106 -90 106q-50 0 -71 -36.5t-21 -111.5zM249 408q-128 0 -128 -135v-195q134 0 199.5 59.5t65.5 162.5q0 52 -37 80t-100 28z" />
    <glyph glyph-name="uni10ED" unicode="&#x10ed;" horiz-adv-x="599" 
d="M588 387l-123 -75l123 -74l-41 -65l-77 49v-264q0 -21 -2.5 -42.5t-15 -54t-34 -56t-63.5 -41t-99 -17.5q-58 0 -101 15.5t-65.5 38t-36.5 53.5t-17.5 54.5t-3.5 49.5v75h86v-75q0 -66 35.5 -101t102.5 -35q128 0 128 136v260q-71 -63 -139 -63q-57 0 -94 50t-37 114
t37 113.5t94 49.5q68 0 139 -63v295h86v-312l76 49zM284 227q31 0 67.5 32.5t36.5 59.5t-36.5 59t-67.5 32q-33 0 -58.5 -26.5t-26.5 -65.5q1 -39 26.5 -65t58.5 -26z" />
    <glyph glyph-name="uni10EE" unicode="&#x10ee;" horiz-adv-x="508" 
d="M272 482q51 0 89.5 -16t59 -38t33 -52.5t16 -54.5t3.5 -49v-73q0 -26 -3.5 -49.5t-17.5 -54.5t-36.5 -53.5t-65.5 -38t-101 -15.5q-57 0 -99 17.5t-63.5 41t-34 56t-15 54t-2.5 42.5v515h86v-295q39 27 76 76.5t46 91.5h99q-20 -67 -70 -105zM387 199v73q0 65 -35.5 100
t-102.5 35q-128 0 -128 -135v-73q0 -136 128 -136q67 0 102.5 35t35.5 101z" />
    <glyph glyph-name="uni10EF" unicode="&#x10ef;" horiz-adv-x="505" 
d="M300 238q45 -6 78.5 -25.5t50.5 -42.5t27 -52.5t12 -48.5t2 -38v-73q0 -21 -2.5 -42.5t-15 -54t-34 -56t-63.5 -41t-99 -17.5q-58 0 -101 15.5t-65.5 38t-36.5 53.5t-17.5 54.5t-3.5 49.5v24h86v-24q0 -66 35.5 -101t102.5 -35q128 0 128 136v73q0 135 -128 135
q-25 0 -41 -4v129l-150 -15l-8 75l158 16v106h85v-97l159 16l8 -75l-167 -17v-62z" />
    <glyph glyph-name="uni10F0" unicode="&#x10f0;" horiz-adv-x="503" 
d="M358 446q4 -1 10.5 -2.5t23.5 -8.5t30 -17t23.5 -28t10.5 -40q0 -35 -24.5 -59t-49.5 -31l-24 -7q4 -1 11 -2.5t25.5 -10t32 -20.5t25 -34.5t11.5 -50.5q0 -71 -61 -109t-148 -38q-113 0 -171.5 60t-50.5 161h85q-4 -76 34 -111t103 -35q51 0 87 20t36 57q0 40 -46 63.5
t-111 13.5h-1v38v37h1q59 -8 105 9t46 49t-46 49t-105 9h-1v38v37h1q57 -8 98 11t41 55q0 33 -27 49t-89 17q-32 1 -58.5 13.5t-41.5 30t-23 31t-12 24.5h97q15 -24 60 -26q36 -2 73.5 -13t72 -41.5t34.5 -73.5q0 -26 -9 -47.5t-21.5 -33.5t-25.5 -20t-22 -11z" />
    <glyph glyph-name="uni2010" unicode="&#x2010;" horiz-adv-x="389" 
d="M50 238v80h289v-80h-289z" />
    <glyph glyph-name="endash" unicode="&#x2013;" horiz-adv-x="500" 
d="M0 238v80h500v-80h-500z" />
    <glyph glyph-name="emdash" unicode="&#x2014;" horiz-adv-x="1000" 
d="M130 238v80h740v-80h-740z" />
    <glyph glyph-name="quoteleft" unicode="&#x2018;" horiz-adv-x="278" 
d="M195 567v-111h-111v111q0 64 27.5 105.5t82.5 41.5v-50q-31 0 -44.5 -28.5t-13.5 -68.5h59z" />
    <glyph glyph-name="quoteright" unicode="&#x2019;" horiz-adv-x="278" 
d="M83 603v111h111v-111q0 -64 -27.5 -105.5t-82.5 -41.5v50q31 0 44.5 28.5t13.5 68.5h-59z" />
    <glyph glyph-name="quotesinglbase" unicode="&#x201a;" horiz-adv-x="278" 
d="M83 0v111h111v-111q0 -64 -27.5 -105.5t-82.5 -41.5v50q31 0 44.5 28.5t13.5 68.5h-59z" />
    <glyph glyph-name="quotedblleft" unicode="&#x201c;" horiz-adv-x="426" 
d="M360 567v-111h-111v111q0 64 27.5 105.5t82.5 41.5v-50q-31 0 -44.5 -28.5t-13.5 -68.5h59zM177 567v-111h-111v111q0 64 27.5 105.5t82.5 41.5v-50q-31 0 -44.5 -28.5t-13.5 -68.5h59z" />
    <glyph glyph-name="quotedblright" unicode="&#x201d;" horiz-adv-x="426" 
d="M249 603v111h111v-111q0 -64 -27.5 -105.5t-82.5 -41.5v50q31 0 44.5 28.5t13.5 68.5h-59zM66 603v111h111v-111q0 -64 -27.5 -105.5t-82.5 -41.5v50q31 0 44.5 28.5t13.5 68.5h-59z" />
    <glyph glyph-name="quotedblbase" unicode="&#x201e;" horiz-adv-x="426" 
d="M66 0v111h111v-111q0 -64 -27.5 -105.5t-82.5 -41.5v50q31 0 44.5 28.5t13.5 68.5h-59zM249 0v111h111v-111q0 -64 -27.5 -105.5t-82.5 -41.5v50q31 0 44.5 28.5t13.5 68.5h-59z" />
    <glyph glyph-name="dagger" unicode="&#x2020;" 
d="M236 -155v597h-194v75h194v197h80v-197h198v-75h-198v-597h-80z" />
    <glyph glyph-name="daggerdbl" unicode="&#x2021;" 
d="M236 -155v197h-194v75h194v325h-194v75h194v197h80v-197h198v-75h-198v-325h198v-75h-198v-197h-80z" />
    <glyph glyph-name="bullet" unicode="&#x2022;" horiz-adv-x="500" 
d="M72 357q0 74 52 126t126 52t126.5 -52t52.5 -126t-52.5 -126.5t-126.5 -52.5t-126 52.5t-52 126.5z" />
    <glyph glyph-name="ellipsis" unicode="&#x2026;" horiz-adv-x="1000" 
d="M111 0v111h111v-111h-111zM444 0v111h111v-111h-111zM777 0v111h111v-111h-111z" />
    <glyph glyph-name="perthousand" unicode="&#x2030;" horiz-adv-x="1148" 
d="M72 535q0 79 35.5 126.5t112.5 47.5q76 0 111 -45.5t35 -123.5q0 -77 -40 -127q-35 -45 -108 -45q-74 0 -110 45.5t-36 121.5zM147 538q0 -115 72 -115q40 0 56 34t16 80q0 26 -4.5 50t-21 45.5t-42.5 21.5q-41 0 -58.5 -34.5t-17.5 -81.5zM437 155q0 79 35.5 126.5
t112.5 47.5q76 0 111 -45.5t35 -123.5q0 -77 -40 -127q-35 -45 -108 -45q-74 0 -110 45.5t-36 121.5zM512 158q0 -115 72 -115q40 0 56 34t16 80q0 26 -4.5 50t-21 45.5t-42.5 21.5q-41 0 -58.5 -34.5t-17.5 -81.5zM782 155q0 79 35.5 126.5t112.5 47.5q76 0 111 -45.5
t35 -123.5q0 -77 -40 -127q-35 -45 -108 -45q-74 0 -110 45.5t-36 121.5zM857 158q0 -115 72 -115q40 0 56 34t16 80q0 26 -4.5 50t-21 45.5t-42.5 21.5q-41 0 -58.5 -34.5t-17.5 -81.5zM90 -22l538 744h85l-537 -744h-86z" />
    <glyph glyph-name="guilsinglleft" unicode="&#x2039;" horiz-adv-x="259" 
d="M202 114l-152 120v88l152 120v-86l-100 -78l100 -78v-86z" />
    <glyph glyph-name="guilsinglright" unicode="&#x203a;" horiz-adv-x="259" 
d="M57 442l152 -120v-88l-152 -120v86l100 78l-100 78v86z" />
    <glyph glyph-name="fraction" unicode="&#x2044;" horiz-adv-x="167" 
d="M-166 -28l435 753h64l-435 -753h-64z" />
    <glyph glyph-name="Euro" unicode="&#x20ac;" 
d="M558 662l-46 -83q-70 69 -143 69q-75 0 -124 -64q-39 -51 -56 -134h283l-27 -61h-263q-1 -11 -1 -31q0 -15 1 -21h249l-26 -61h-218q33 -215 190 -215q48 0 85 19q27 14 69 53v-105q-68 -44 -154 -44q-245 0 -287 292h-77l27 61h46q-1 7 -1 20q0 23 1 32h-73l26 61h54
q24 123 91 194q75 81 193 81q91 0 181 -63z" />
    <glyph glyph-name="uni20BE" unicode="&#x20be;" horiz-adv-x="654" 
d="M614 355h-91v79q0 138 -98 182v-261h-69v277q-7 1 -23 1q-13 0 -35 -2v-276h-69v258q-98 -47 -98 -179v-159q0 -86 47 -141.5t149 -57.5h241v-76h-241h-276v69h95q-106 57 -106 216v149q0 220 189 264v117h69v-107q11 1 35 1q15 0 23 -1v107h69v-116q91 -21 140 -88.5
t49 -176.5v-79z" />
    <glyph glyph-name="afii61289" unicode="&#x2113;" horiz-adv-x="487" 
d="M427 153l37 -34q-67 -126 -188 -126q-82 0 -124.5 52t-42.5 129v13l-57 -46l-24 46q66 55 80 68v270q0 125 45 183t111 58q62 0 94 -45.5t32 -117.5q0 -163 -206 -364l1 -33q2 -75 32 -112.5t75 -37.5q43 0 78 28.5t57 68.5zM184 531v-214q151 165 151 285q0 104 -70 104
q-32 0 -56.5 -42t-24.5 -133z" />
    <glyph glyph-name="trademark" unicode="&#x2122;" horiz-adv-x="965" 
d="M390 713v-55h-129v-357h-68v357h-129v55h326zM899 301h-68v315l-115 -231h-62l-113 227v-311h-68v412h93l119 -239l120 239h94v-412z" />
    <glyph glyph-name="Omega" unicode="&#x2126;" horiz-adv-x="719" 
d="M196 66v2q-58 52 -96 131t-38 176q0 144 85.5 237.5t214.5 93.5q131 0 212.5 -97t81.5 -230q0 -99 -39.5 -181t-96.5 -130v-2h149v-66h-242v48q63 41 105.5 123t42.5 193q0 107 -57.5 191t-156.5 84q-98 0 -158 -79.5t-60 -198.5q0 -105 43.5 -190t103.5 -123v-48h-242
v66h148z" />
    <glyph glyph-name="estimated" unicode="&#x212e;" horiz-adv-x="869" 
d="M835 338h-649q-5 0 -5 -4v-196q0 -12 8 -23q103 -106 246 -106q75 0 142 32t116 87h57q-54 -64 -137.5 -101.5t-178.5 -37.5q-166 0 -283 105t-117 254t117 255t283 106t283.5 -106t117.5 -255v-10zM687 364v197q0 15 -9 24q-102 102 -243 102q-142 0 -245 -105
q-9 -10 -9 -25v-193q0 -6 5 -6h497q4 0 4 6z" />
    <glyph glyph-name="partialdiff" unicode="&#x2202;" horiz-adv-x="548" 
d="M102 666l-27 58q69 56 168 56q107 0 181 -98t74 -279t-69 -296t-194 -115q-92 0 -142.5 69.5t-50.5 161.5q0 113 62.5 183.5t149.5 70.5q61 0 103.5 -31t60.5 -63h1q1 11 1 42q0 126 -53.5 207.5t-131.5 81.5q-74 0 -133 -48zM242 59h1q66 0 111 72.5t56 174.5
q-14 38 -52 72t-90 34q-61 0 -104 -56t-43 -133q0 -72 33.5 -118t87.5 -46z" />
    <glyph glyph-name="Delta" unicode="&#x2206;" horiz-adv-x="647" 
d="M31 0v53l248 660h93l245 -659v-54h-586zM112 65h419l-142 372q-51 134 -65 185h-4q-9 -36 -59 -169z" />
    <glyph glyph-name="product" unicode="&#x220f;" horiz-adv-x="701" 
d="M674 622h-109v-718h-78v718h-274v-718h-79v718h-108v72h648v-72z" />
    <glyph glyph-name="summation" unicode="&#x2211;" horiz-adv-x="554" 
d="M531 -96h-508v53l266 341l-255 341v55h481v-68h-371v-4l236 -312l-255 -328v-3h406v-75z" />
    <glyph glyph-name="minus" unicode="&#x2212;" horiz-adv-x="600" 
d="M48 219v68h504v-68h-504z" />
    <glyph glyph-name="uni2215" unicode="&#x2215;" horiz-adv-x="167" 
d="M-166 -28l435 753h64l-435 -753h-64z" />
    <glyph glyph-name="uni2219" unicode="&#x2219;" horiz-adv-x="278" 
d="M75 311q0 26 19 45t45 19q25 0 44.5 -19.5t19.5 -44.5q0 -24 -19.5 -44t-43.5 -20q-26 0 -45.5 19t-19.5 45z" />
    <glyph glyph-name="radical" unicode="&#x221a;" horiz-adv-x="573" 
d="M574 826l-222 -974h-70l-158 459l-75 -28l-15 48l139 54l125 -366q8 -23 18 -72l1 -1q7 46 14 74l184 806h59z" />
    <glyph glyph-name="infinity" unicode="&#x221e;" horiz-adv-x="774" 
d="M724 289v-1q0 -71 -45.5 -115.5t-107.5 -44.5q-45 0 -86.5 28t-96.5 90q-49 -57 -91 -87.5t-97 -30.5q-62 0 -106 45t-44 111q0 69 44.5 114t112.5 45q51 0 94.5 -31t90.5 -87q25 27 31.5 35t30 29.5t38 29.5t38.5 16t48 8q65 0 105.5 -43t40.5 -111zM207 177h1
q13 0 25.5 3t26 11t21.5 12.5t23 19t19 18.5t20.5 22t17.5 19q-24 30 -35 42.5t-33.5 33.5t-44.5 29.5t-47 8.5q-45 0 -72 -33t-27 -80q0 -44 29.5 -75t75.5 -31zM573 396h-2q-19 0 -37 -7t-36.5 -22t-29 -25t-28.5 -30.5t-22 -24.5q54 -61 86.5 -85.5t69.5 -24.5
q45 0 71.5 32.5t26.5 74.5q0 52 -27.5 82t-71.5 30z" />
    <glyph glyph-name="integral" unicode="&#x222b;" horiz-adv-x="361" 
d="M343 836l-13 -55q-16 10 -36 10q-29 0 -50 -24q-34 -42 -34 -176q0 -78 7 -247t7 -251q0 -134 -42 -201q-34 -53 -102 -53q-39 0 -66 16l13 58q27 -12 45 -12q30 0 46 22q34 44 34 170q0 83 -7 255t-7 250q0 83 12.5 132t41.5 80q37 40 96 40q29 0 55 -14z" />
    <glyph glyph-name="approxequal" unicode="&#x2248;" horiz-adv-x="561" 
d="M483 431l32 -28q-50 -96 -129 -96q-28 0 -51.5 9t-65.5 33q-59 34 -93 34q-31 0 -52.5 -19t-45.5 -55l-33 27q23 45 59 70.5t79 25.5q17 0 35 -5t27.5 -9t27.5 -14.5t21 -11.5q3 -2 14 -8t14.5 -8t12 -6t13 -5.5l12 -4t14 -3t14.5 -0.5q29 0 51 18t44 56zM483 259l32 -28
q-50 -95 -129 -95q-28 0 -51.5 9t-65.5 33q-59 34 -92 34q-23 0 -42 -12t-30.5 -25.5t-26.5 -37.5l-33 28q23 44 59 70t79 26q17 0 35 -5t27.5 -9t27.5 -14.5t21 -11.5q3 -2 15.5 -8.5t16 -8.5t13.5 -7t16 -6.5t15 -3t18 -1.5q29 0 50.5 17.5t44.5 55.5z" />
    <glyph glyph-name="notequal" unicode="&#x2260;" horiz-adv-x="561" 
d="M399 503l-44 -97h155v-51h-175l-67 -145h242v-51h-262l-54 -117l-40 18l45 99h-148v51h169l66 145h-235v51h255l53 115z" />
    <glyph glyph-name="lessequal" unicode="&#x2264;" horiz-adv-x="561" 
d="M507 96l-451 224v54l451 224v-61l-397 -188v-2l397 -191v-60zM510 3h-459v52h459v-52z" />
    <glyph glyph-name="greaterequal" unicode="&#x2265;" horiz-adv-x="561" 
d="M57 598l451 -224v-54l-451 -224v60l396 190v2l-396 189v61zM509 3h-457v52h457v-52z" />
    <glyph glyph-name="lozenge" unicode="&#x25ca;" horiz-adv-x="573" 
d="M519 347l-202 -393h-64l-199 393l201 393h65zM446 345l-140 275q-9 18 -19 53h-2q-12 -37 -20 -53l-139 -271l141 -278q11 -21 18 -51h3q5 22 18 50z" />
    <glyph glyph-name="fi" unicode="&#xfb01;" horiz-adv-x="518" 
d="M184 517h266v-75v-442h-85v442h-181v-442h-85v442h-87v75h87v57q0 148 173 148q34 0 71.5 -9t58.5 -18l20 -9v-74q-65 35 -143 35q-47 0 -71 -16t-24 -62v-52z" />
    <glyph glyph-name="fl" unicode="&#xfb02;" horiz-adv-x="532" 
d="M499 63q23 0 35 2v-73q-20 -4 -44 -4q-58 0 -91 32.5t-33 99.5v517q-34 10 -87 10q-47 0 -71 -16t-24 -62v-52h100v-75h-100v-442h-85v442h-87v75h87v57q0 148 193 148q40 0 80 -9t60 -18l19 -9v-552q0 -40 10 -55.5t38 -15.5z" />
    <glyph glyph-name="f_i" horiz-adv-x="518" 
d="M184 517h266v-75v-442h-85v442h-181v-442h-85v442h-87v75h87v57q0 148 173 148q34 0 71.5 -9t58.5 -18l20 -9v-74q-65 35 -143 35q-47 0 -71 -16t-24 -62v-52z" />
    <glyph glyph-name="f_l" horiz-adv-x="532" 
d="M499 63q23 0 35 2v-73q-20 -4 -44 -4q-58 0 -91 32.5t-33 99.5v517q-34 10 -87 10q-47 0 -71 -16t-24 -62v-52h100v-75h-100v-442h-85v442h-87v75h87v57q0 148 193 148q40 0 80 -9t60 -18l19 -9v-552q0 -40 10 -55.5t38 -15.5z" />
    <glyph glyph-name="a.superior" horiz-adv-x="353" 
d="M186 709q131 0 131 -96v-232h-54v45q-47 -54 -122 -54q-52 0 -83.5 24.5t-31.5 77.5q0 35 19 60t51 37.5t63 17.5t65 5h36v7q0 57 -77 57q-78 0 -86 -57h-57q5 56 45 82t101 26zM260 501v43h-47q-58 0 -92.5 -18.5t-34.5 -51.5q0 -51 67 -51q52 0 79.5 25t27.5 53z" />
    <glyph glyph-name="o.superior" horiz-adv-x="384" 
d="M192 709q79 0 123 -46.5t44 -119.5q0 -74 -43 -118.5t-123 -44.5q-78 0 -123 45t-45 118t44 119.5t123 46.5zM192 659q-43 0 -71 -29.5t-28 -86.5q0 -49 24.5 -81t75.5 -32q50 0 74 31.5t24 80.5q0 65 -29 91t-70 26z" />
    <glyph glyph-name="one.superior" horiz-adv-x="317" 
d="M160 615l-59 -62l-38 39l108 117h56v-429h-67v335z" />
    <glyph glyph-name="two.superior" horiz-adv-x="333" 
d="M228 432l-131 -96h220v-56h-304v56l179 134q71 51 71 117q0 33 -25.5 50t-64.5 17q-46 0 -69.5 -27.5t-21.5 -68.5h-55q-4 66 36.5 108.5t112.5 42.5q64 0 105 -32.5t41 -90.5q0 -85 -94 -154z" />
    <glyph glyph-name="three.superior" horiz-adv-x="333" 
d="M132 477v50h24q36 0 59.5 16t23.5 49q0 29 -21.5 45.5t-55.5 16.5q-39 0 -59.5 -24t-20.5 -62h-68q4 65 43 103t105 38q64 0 104.5 -30.5t40.5 -86.5q0 -27 -19.5 -50t-48.5 -35v-2q42 -8 64.5 -35.5t22.5 -66.5q0 -62 -47.5 -96t-114.5 -34q-70 0 -115 37t-45 104h68
q1 -41 25 -63.5t67 -22.5q39 0 66.5 19.5t27.5 52.5q0 39 -27 58t-66 19h-33z" />
    </font>
</defs>
</svg>
